SplineFontDB: 3.0
FontName: Topmarks-Book
FullName: Topmarks Book
FamilyName: Topmarks
Weight: Medium
Copyright: Copyright (c) 2012-13 by vernon adams.
Version: 
ItalicAngle: 0
UnderlinePosition: 0
UnderlineWidth: 0
Ascent: 1638
Descent: 410
UFOAscent: 1560
UFODescent: -656
LayerCount: 2
Layer: 0 0 "Back"  1
Layer: 1 0 "Fore"  0
OS2Version: 0
OS2_WeightWidthSlopeOnly: 0
OS2_UseTypoMetrics: 0
CreationTime: 1377811522
ModificationTime: 1377811522
PfmFamily: 0
TTFWeight: 400
TTFWidth: 5
LineGap: 0
VLineGap: 0
OS2TypoAscent: 1968
OS2TypoAOffset: 0
OS2TypoDescent: -656
OS2TypoDOffset: 0
OS2TypoLinegap: 0
OS2WinAscent: 1968
OS2WinAOffset: 0
OS2WinDescent: 656
OS2WinDOffset: 0
HheadAscent: 0
HheadAOffset: 1
HheadDescent: 0
HheadDOffset: 1
OS2Vendor: 'newt'
Lookup: 4 0 0 "fracDiagonalFractionslookup0"  {"fracDiagonalFractionslookup0 subtable"  } ['frac' ('latn' <'dflt' > 'grek' <'dflt' > 'DFLT' <'dflt' > ) ]
Lookup: 260 0 0 "markMarkPositioninglookup0"  {"markMarkPositioninglookup0 subtable"  } ['mark' ('latn' <'dflt' > 'grek' <'dflt' > 'DFLT' <'dflt' > ) ]
DEI: 91125
LangName: 1033 "" "" "" "" "" "Version " "" "Topmarks is a trademark of vernon adams." "vernon adams" "vernon adams" "Copyright (c) 2011 by vernon adams. All rights reserved." "" "" "Copyright (c) 2013, vernon adams (<URL|email>),+AAoA-with Reserved Font Name Topmarks.+AAoACgAA-This Font Software is licensed under the SIL Open Font License, Version 1.1.+AAoA-This license is copied below, and is also available with a FAQ at:+AAoA-http://scripts.sil.org/OFL" "http://scripts.sil.org/OFL" 
Encoding: UnicodeBmp
Compacted: 1
UnicodeInterp: none
NameList: AGL For New Fonts
DisplaySize: -48
AntiAlias: 1
FitToEm: 1
WinInfo: 0 25 11
BeginPrivate: 7
BlueValues 27 [-24 0 1026 1052 1560 1586]
OtherBlues 11 [-574 -508]
StemSnapH 24 [20 106 124 132 138 150]
StemSnapV 17 [164 170 174 184]
BlueFuzz 1 1
BlueShift 1 7
BlueScale 8 0.039625
EndPrivate

StartChar: A
Encoding: 65 65 0
Width: 1397
VWidth: 0
GlyphClass: 2
Flags: W
AnchorPoint: "ogonek" 1260 0 basechar 0
AnchorPoint: "bottom" 736 0 basechar 0
AnchorPoint: "top" 702 1536 basechar 0
LayerCount: 2
Fore
SplineSet
40 0 m 1
 609 1560 l 1
 787 1560 l 1
 1357 0 l 1
 1176 0 l 1
 1008 479 l 1
 383 479 l 1
 216 0 l 1
 40 0 l 1
435 615 m 1
 956 615 l 1
 869 871 781 1125 698 1385 c 1
 609 1130 522 872 435 615 c 1
EndSplineSet
EndChar

StartChar: AE
Encoding: 198 198 1
Width: 1981
VWidth: 0
GlyphClass: 2
Flags: W
LayerCount: 2
Fore
SplineSet
15 0 m 1
 823 1456 l 1
 1832 1456 l 1
 1832 1308 l 1
 1133 1308 l 1
 1169 820 l 1
 1791 820 l 1
 1791 672 l 1
 1187 672 l 1
 1227 148 l 1
 1855 148 l 1
 1855 0 l 1
 1080 0 l 1
 1050 398 l 1
 430 398 l 1
 211 0 l 1
 15 0 l 1
506 546 m 1
 1032 546 l 1
 974 1308 l 1
 926 1308 l 1
 506 546 l 1
EndSplineSet
EndChar

StartChar: B
Encoding: 66 66 11
Width: 1360
VWidth: 0
GlyphClass: 2
Flags: W
AnchorPoint: "bottom" 680 0 basechar 0
AnchorPoint: "top" 704 1536 basechar 0
LayerCount: 2
Fore
SplineSet
198 0 m 1
 198 1560 l 1
 603 1560 l 2
 973 1560 1162 1454 1162 1184 c 0
 1162 983 1071 882 909 824 c 1
 1110 782 1230 669 1230 432 c 0
 1230 122 992 0 650 0 c 2
 198 0 l 1
372 138 m 1
 644 138 l 2
 908 138 1048 229 1048 435 c 0
 1048 645 909 733 604 733 c 2
 372 733 l 1
 372 138 l 1
372 884 m 1
 574 884 l 2
 852 884 983 962 983 1154 c 0
 983 1339 890 1422 603 1422 c 2
 372 1422 l 1
 372 884 l 1
EndSplineSet
EndChar

StartChar: C
Encoding: 67 67 12
Width: 1404
VWidth: 0
GlyphClass: 2
Flags: W
AnchorPoint: "bottom" 830 -2 basechar 0
AnchorPoint: "top" 794 1534 basechar 0
LayerCount: 2
Fore
SplineSet
309 783 m 0
 309 375 535 126 837 126 c 0
 949 126 1088 161 1213 230 c 1
 1266 100 l 1
 1120 18 988 -24 824 -24 c 0
 446 -24 126 256 126 783 c 0
 126 1310 446 1586 824 1586 c 0
 988 1586 1120 1548 1266 1466 c 1
 1205 1332 l 1
 1078 1402 957 1436 843 1436 c 0
 544 1436 309 1198 309 783 c 0
EndSplineSet
EndChar

StartChar: D
Encoding: 68 68 18
Width: 1528
VWidth: 0
GlyphClass: 2
Flags: W
AnchorPoint: "bottom" 680 0 basechar 0
AnchorPoint: "top" 704 1536 basechar 0
LayerCount: 2
Fore
SplineSet
372 138 m 1
 607 138 l 2
 1008 138 1223 366 1220 775 c 0
 1217 1248 1005 1422 533 1422 c 2
 372 1422 l 1
 372 138 l 1
198 0 m 1
 198 1560 l 1
 529 1560 l 2
 1115 1560 1397 1327 1402 778 c 0
 1406 294 1122 0 596 0 c 2
 198 0 l 1
EndSplineSet
EndChar

StartChar: Delta
Encoding: 916 916 20
Width: 1294
VWidth: 0
GlyphClass: 2
Flags: W
LayerCount: 2
Fore
SplineSet
50 0 m 1
 50 80 l 1
 560 1456 l 1
 735 1456 l 1
 1244 80 l 1
 1244 0 l 1
 50 0 l 1
245 135 m 1
 1050 135 l 1
 675 1187 l 1
 643 1294 l 1
 612 1187 l 1
 245 135 l 1
EndSplineSet
EndChar

StartChar: E
Encoding: 69 69 21
Width: 1192
VWidth: 0
GlyphClass: 2
Flags: W
AnchorPoint: "ogonek" 854 0 basechar 0
AnchorPoint: "bottom" 830 0 basechar 0
AnchorPoint: "top" 660 1536 basechar 0
LayerCount: 2
Fore
SplineSet
198 0 m 1
 198 1560 l 1
 1045 1560 l 1
 1045 1422 l 1
 372 1422 l 1
 372 870 l 1
 1007 870 l 1
 1007 732 l 1
 372 732 l 1
 372 138 l 1
 1095 138 l 1
 1095 0 l 1
 198 0 l 1
EndSplineSet
EndChar

StartChar: Eth
Encoding: 208 208 31
Width: 1518
VWidth: 0
GlyphClass: 2
Flags: W
LayerCount: 2
Fore
SplineSet
43 800 m 1
 610 800 l 1
 610 672 l 1
 43 672 l 1
 43 800 l 1
EndSplineSet
Refer: 18 68 N 1 0 0 1 0 0 2
EndChar

StartChar: Euro
Encoding: 8364 8364 32
Width: 1394
VWidth: 0
GlyphClass: 2
Flags: W
LayerCount: 2
Fore
SplineSet
850 516 m 1
 13 516 l 1
 33 644 l 1
 222 644 l 1
 222 794 l 1
 10 794 l 1
 32 922 l 1
 903 922 l 1
 883 794 l 1
 313 794 l 1
 313 644 l 1
 869 644 l 1
 850 516 l 1
EndSplineSet
Refer: 12 67 N 1 0 0 1 25 0 2
EndChar

StartChar: F
Encoding: 70 70 33
Width: 1104
VWidth: 0
GlyphClass: 2
Flags: W
AnchorPoint: "bottom" 680 0 basechar 0
AnchorPoint: "top" 704 1536 basechar 0
LayerCount: 2
Fore
SplineSet
198 0 m 1
 198 1560 l 1
 1024 1560 l 1
 1024 1422 l 1
 372 1422 l 1
 372 925 l 1
 990 925 l 1
 990 777 l 1
 372 777 l 1
 372 0 l 1
 198 0 l 1
EndSplineSet
EndChar

StartChar: G
Encoding: 71 71 34
Width: 1507
VWidth: 0
GlyphClass: 2
Flags: W
AnchorPoint: "ogonek" 854 0 basechar 0
AnchorPoint: "bottom" 830 0 basechar 0
AnchorPoint: "top" 660 1536 basechar 0
LayerCount: 2
Fore
SplineSet
126 752 m 0
 126 1298 455 1587 847 1587 c 0
 992 1587 1147 1547 1296 1466 c 1
 1228 1327 l 1
 1099 1395 973 1436 858 1436 c 0
 544 1436 309 1187 309 766 c 0
 309 370 494 126 850 126 c 0
 966 126 1078 139 1164 178 c 1
 1164 653 l 1
 752 653 l 1
 752 812 l 1
 1327 812 l 1
 1327 88 l 1
 1182 15 1028 -24 837 -24 c 0
 391 -24 126 258 126 752 c 0
EndSplineSet
EndChar

StartChar: H
Encoding: 72 72 39
Width: 1510
VWidth: 0
GlyphClass: 2
Flags: W
AnchorPoint: "bottom" 792 0 basechar 0
AnchorPoint: "top" 797 1536 basechar 0
LayerCount: 2
Fore
SplineSet
198 0 m 1
 198 1560 l 1
 372 1560 l 1
 372 889 l 1
 1138 889 l 1
 1138 1560 l 1
 1312 1560 l 1
 1312 0 l 1
 1138 0 l 1
 1138 741 l 1
 372 741 l 1
 372 0 l 1
 198 0 l 1
EndSplineSet
EndChar

StartChar: I
Encoding: 73 73 41
Width: 902
VWidth: 0
GlyphClass: 2
Flags: W
AnchorPoint: "bottom" 496 1 basechar 0
AnchorPoint: "top" 494 1536 basechar 0
LayerCount: 2
Fore
SplineSet
746 0 m 1
 156 0 l 1
 156 124 l 1
 364 124 l 1
 364 1436 l 1
 156 1436 l 1
 156 1560 l 1
 746 1560 l 1
 746 1436 l 1
 538 1436 l 1
 538 124 l 1
 746 124 l 1
 746 0 l 1
EndSplineSet
EndChar

StartChar: J
Encoding: 74 74 52
Width: 1201
VWidth: 0
GlyphClass: 2
Flags: W
AnchorPoint: "top" 668 1536 basechar 0
LayerCount: 2
Fore
SplineSet
121 130 m 1
 208 248 l 1
 276 166 370 126 455 126 c 0
 616 126 693 209 693 467 c 2
 693 1436 l 1
 288 1436 l 1
 288 1560 l 1
 1131 1560 l 1
 1131 1436 l 1
 860 1436 l 1
 860 434 l 2
 860 123 716 -24 465 -24 c 0
 342 -24 206 24 121 130 c 1
EndSplineSet
EndChar

StartChar: K
Encoding: 75 75 54
Width: 1258
VWidth: 0
GlyphClass: 2
Flags: W
AnchorPoint: "bottom" 730 0 basechar 0
AnchorPoint: "top" 671 1536 basechar 0
LayerCount: 2
Fore
SplineSet
198 0 m 1
 198 1560 l 1
 372 1560 l 1
 372 850 l 1
 988 1560 l 1
 1199 1560 l 1
 548 818 l 1
 1239 0 l 1
 1021 0 l 1
 372 779 l 1
 372 0 l 1
 198 0 l 1
EndSplineSet
EndChar

StartChar: L
Encoding: 76 76 56
Width: 1070
VWidth: 0
GlyphClass: 2
Flags: W
AnchorPoint: "bottom" 700 0 basechar 0
AnchorPoint: "top" 584 1536 basechar 0
LayerCount: 2
Fore
SplineSet
198 0 m 1
 198 1560 l 1
 372 1560 l 1
 372 138 l 1
 1051 138 l 1
 1051 0 l 1
 198 0 l 1
EndSplineSet
EndChar

StartChar: Lslash
Encoding: 321 321 61
Width: 1076
VWidth: 0
GlyphClass: 2
Flags: W
LayerCount: 2
Fore
SplineSet
653 890 m 1
 25 489 l 1
 25 626 l 1
 653 1027 l 1
 653 890 l 1
EndSplineSet
Refer: 56 76 N 1 0 0 1 0 0 2
EndChar

StartChar: M
Encoding: 77 77 62
Width: 1942
VWidth: 0
GlyphClass: 2
Flags: W
AnchorPoint: "bottom" 980 0 basechar 0
AnchorPoint: "top" 974 1536 basechar 0
LayerCount: 2
Fore
SplineSet
198 0 m 1
 198 1560 l 1
 424 1560 l 1
 607 1180 791 802 972 420 c 1
 1152 806 1346 1179 1532 1560 c 1
 1744 1560 l 1
 1744 0 l 1
 1579 0 l 1
 1579 1333 l 1
 1394 964 1213 591 1030 220 c 1
 909 220 l 1
 435 1190 l 1
 365 1350 l 1
 365 0 l 1
 198 0 l 1
EndSplineSet
EndChar

StartChar: N
Encoding: 78 78 63
Width: 1583
VWidth: 0
GlyphClass: 2
Flags: W
AnchorPoint: "bottom" 808 0 basechar 0
AnchorPoint: "top" 813 1536 basechar 0
LayerCount: 2
Fore
SplineSet
198 0 m 1
 198 1560 l 1
 403 1560 l 1
 673 1111 946 665 1214 215 c 1
 1214 1560 l 1
 1385 1560 l 1
 1385 0 l 1
 1178 0 l 1
 439 1217 l 1
 370 1341 l 1
 370 0 l 1
 198 0 l 1
EndSplineSet
EndChar

StartChar: O
Encoding: 79 79 68
Width: 1646
VWidth: 0
GlyphClass: 2
Flags: W
AnchorPoint: "ogonek" 854 0 basechar 0
AnchorPoint: "bottom" 830 0 basechar 0
AnchorPoint: "top" 660 1536 basechar 0
LayerCount: 2
Fore
SplineSet
823 -24 m 0
 368 -24 126 340 126 782 c 0
 126 1226 368 1586 823 1586 c 0
 1278 1586 1520 1226 1520 782 c 0
 1520 340 1278 -24 823 -24 c 0
823 126 m 0
 1110 126 1336 353 1336 782 c 0
 1336 1211 1110 1436 823 1436 c 0
 536 1436 310 1211 310 782 c 0
 310 353 536 126 823 126 c 0
EndSplineSet
EndChar

StartChar: OE
Encoding: 338 338 69
Width: 1998
VWidth: 0
GlyphClass: 2
Flags: W
LayerCount: 2
Fore
SplineSet
1007 1292 m 1
 946 1317 880 1330 813 1330 c 0
 546 1330 300 1128 300 729 c 0
 300 330 546 126 813 126 c 0
 880 126 946 139 1007 165 c 1
 1007 0 l 1
 948 -16 883 -24 813 -24 c 0
 358 -24 116 336 116 728 c 0
 116 1122 358 1480 813 1480 c 0
 883 1480 948 1472 1007 1456 c 1
 1007 1292 l 1
EndSplineSet
Refer: 21 69 N 1 0 0 1 807 0 2
EndChar

StartChar: Oslash
Encoding: 216 216 77
Width: 1626
VWidth: 0
GlyphClass: 2
Flags: W
LayerCount: 2
Fore
SplineSet
521 -175 m 1
 418 -142 l 1
 1125 1604 l 1
 1232 1571 l 1
 521 -175 l 1
EndSplineSet
Refer: 68 79 N 1 0 0 1 0 0 2
EndChar

StartChar: P
Encoding: 80 80 79
Width: 1238
VWidth: 0
GlyphClass: 2
Flags: W
AnchorPoint: "bottom" 680 0 basechar 0
AnchorPoint: "top" 704 1536 basechar 0
LayerCount: 2
Fore
SplineSet
198 0 m 1
 198 1560 l 1
 597 1560 l 2
 1012 1560 1169 1420 1169 1124 c 0
 1169 838 991 691 621 691 c 2
 372 691 l 1
 372 0 l 1
 198 0 l 1
372 840 m 1
 640 840 l 2
 881 840 985 936 985 1122 c 0
 985 1326 899 1422 620 1422 c 2
 372 1422 l 1
 372 840 l 1
EndSplineSet
EndChar

StartChar: Q
Encoding: 81 81 80
Width: 1646
VWidth: 0
GlyphClass: 2
Flags: W
LayerCount: 2
Fore
SplineSet
1231 -237 m 1
 1085 22 l 1
 1008 -7 923 -24 827 -24 c 0
 372 -24 130 340 130 782 c 0
 130 1226 372 1586 827 1586 c 0
 1282 1586 1524 1226 1524 782 c 0
 1524 491 1419 234 1218 92 c 1
 1359 -168 l 1
 1231 -237 l 1
827 126 m 0
 891 126 952 137 1008 159 c 1
 871 402 l 1
 1009 477 l 1
 1138 239 l 1
 1261 346 1340 529 1340 782 c 0
 1340 1211 1114 1436 827 1436 c 0
 540 1436 314 1211 314 782 c 0
 314 353 540 126 827 126 c 0
EndSplineSet
EndChar

StartChar: R
Encoding: 82 82 81
Width: 1345
VWidth: 0
GlyphClass: 2
Flags: W
AnchorPoint: "bottom" 680 0 basechar 0
AnchorPoint: "top" 704 1536 basechar 0
LayerCount: 2
Fore
SplineSet
198 0 m 1
 198 1560 l 1
 603 1560 l 2
 925 1560 1173 1508 1173 1176 c 0
 1173 982 1083 833 837 780 c 1
 1242 0 l 1
 1050 0 l 1
 672 756 l 1
 372 756 l 1
 372 0 l 1
 198 0 l 1
372 903 m 1
 681 903 l 2
 870 903 1002 963 1002 1162 c 0
 1002 1373 887 1422 692 1422 c 2
 372 1422 l 1
 372 903 l 1
EndSplineSet
EndChar

StartChar: S
Encoding: 83 83 85
Width: 1102
VWidth: 0
GlyphClass: 2
Flags: W
AnchorPoint: "bottom" 587 -1 basechar 0
AnchorPoint: "top" 604 1536 basechar 0
LayerCount: 2
Fore
SplineSet
572 -24 m 0
 382 -24 202 65 111 139 c 1
 162 290 l 1
 255 208 423 126 568 126 c 0
 752 126 850 249 850 423 c 0
 850 553 799 634 499 735 c 0
 219 829 107 946 107 1178 c 2
 107 1184 l 1
 109 1442 308 1586 564 1586 c 0
 737 1586 871 1527 977 1444 c 1
 911 1310 l 1
 829 1373 709 1436 584 1436 c 0
 403 1436 284 1348 281 1194 c 0
 281 1189 280 1184 280 1180 c 0
 280 1034 346 972 599 885 c 0
 934 771 1019 636 1019 420 c 0
 1019 158 852 -24 572 -24 c 0
EndSplineSet
EndChar

StartChar: T
Encoding: 84 84 91
Width: 1124
VWidth: 0
GlyphClass: 2
Flags: W
AnchorPoint: "bottom" 569 0 basechar 0
AnchorPoint: "top" 581 1536 basechar 0
LayerCount: 2
Fore
SplineSet
478 0 m 1
 478 1422 l 1
 27 1422 l 1
 27 1560 l 1
 1098 1560 l 1
 1098 1422 l 1
 652 1422 l 1
 652 0 l 1
 478 0 l 1
EndSplineSet
EndChar

StartChar: Thorn
Encoding: 222 222 94
Width: 1261
VWidth: 0
GlyphClass: 2
Flags: W
LayerCount: 2
Fore
SplineSet
213 0 m 1
 213 1456 l 1
 385 1456 l 1
 385 1312 l 1
 600 1312 l 2
 941 1312 1187 1231 1187 876 c 0
 1187 554 973 443 651 443 c 2
 385 443 l 1
 385 0 l 1
 213 0 l 1
385 592 m 1
 689 592 l 2
 899 592 1003 674 1003 874 c 0
 1003 1114 872 1164 642 1164 c 2
 385 1164 l 1
 385 592 l 1
EndSplineSet
EndChar

StartChar: U
Encoding: 85 85 95
Width: 1462
VWidth: 0
GlyphClass: 2
Flags: W
AnchorPoint: "ogonek" 850 0 basechar 0
AnchorPoint: "bottom" 826 0 basechar 0
AnchorPoint: "top" 656 1536 basechar 0
LayerCount: 2
Fore
SplineSet
743 -24 m 0
 374 -24 175 157 175 541 c 2
 175 1560 l 1
 349 1560 l 1
 349 546 l 2
 349 260 481 126 742 126 c 0
 984 126 1115 279 1115 539 c 2
 1115 1560 l 1
 1288 1560 l 1
 1288 551 l 1
 1286 191 1091 -24 743 -24 c 0
EndSplineSet
EndChar

StartChar: V
Encoding: 86 86 106
Width: 1388
VWidth: 0
GlyphClass: 2
Flags: W
LayerCount: 2
Fore
SplineSet
609 0 m 1
 55 1560 l 1
 243 1560 l 1
 655 335 l 1
 701 185 l 1
 850 644 1000 1102 1149 1560 c 1
 1333 1560 l 1
 795 0 l 1
 609 0 l 1
EndSplineSet
EndChar

StartChar: W
Encoding: 87 87 107
Width: 2120
VWidth: 0
GlyphClass: 2
Flags: W
AnchorPoint: "bottom" 1017 0 basechar 0
AnchorPoint: "top" 1023 1536 basechar 0
LayerCount: 2
Fore
SplineSet
470 0 m 1
 67 1560 l 1
 250 1560 l 1
 543 349 l 1
 581 178 l 1
 715 638 848 1099 981 1560 c 1
 1154 1560 l 1
 1285 1099 1418 641 1547 179 c 1
 1659 637 1767 1100 1877 1560 c 1
 2054 1560 l 1
 1651 0 l 1
 1439 0 l 1
 1062 1354 l 1
 681 0 l 1
 470 0 l 1
EndSplineSet
EndChar

StartChar: X
Encoding: 88 88 112
Width: 1360
VWidth: 0
GlyphClass: 2
Flags: W
LayerCount: 2
Fore
SplineSet
1099 0 m 1
 681 697 l 1
 265 0 l 1
 61 0 l 1
 585 815 l 1
 100 1560 l 1
 306 1560 l 1
 694 928 l 1
 1094 1560 l 1
 1290 1560 l 1
 792 816 l 1
 1300 0 l 1
 1099 0 l 1
EndSplineSet
EndChar

StartChar: Y
Encoding: 89 89 113
Width: 1269
VWidth: 0
GlyphClass: 2
Flags: W
AnchorPoint: "bottom" 625 0 basechar 0
AnchorPoint: "top" 620 1536 basechar 0
LayerCount: 2
Fore
SplineSet
547 0 m 1
 547 652 l 1
 26 1560 l 1
 218 1560 l 1
 634 797 l 1
 1054 1560 l 1
 1244 1560 l 1
 721 655 l 1
 721 0 l 1
 547 0 l 1
EndSplineSet
EndChar

StartChar: Z
Encoding: 90 90 118
Width: 1143
VWidth: 0
GlyphClass: 2
Flags: W
AnchorPoint: "bottom" 676 0 basechar 0
AnchorPoint: "top" 700 1536 basechar 0
LayerCount: 2
Fore
SplineSet
92 0 m 1
 92 92 l 1
 852 1422 l 1
 124 1422 l 1
 124 1560 l 1
 1084 1560 l 1
 1084 1472 l 1
 320 138 l 1
 1076 138 l 1
 1076 0 l 1
 92 0 l 1
EndSplineSet
EndChar

StartChar: a
Encoding: 97 97 122
Width: 1200
VWidth: 0
GlyphClass: 2
Flags: W
AnchorPoint: "ogonek" 992 0 basechar 0
AnchorPoint: "bottom" 629 0 basechar 0
AnchorPoint: "top" 672 1123 basechar 0
LayerCount: 2
Fore
SplineSet
545.157 -22 m 0
 256.345 -22 106 215.836 106 475.063 c 0
 106 752.235 279.026 1052 675.157 1052 c 0
 802.157 1052 916.157 1017 994.157 976 c 1
 994.157 348 l 2
 994.157 170 1012.157 121 1139.157 121 c 1
 1111.157 -14 l 1
 948.157 -14 874.157 49 847.157 161 c 1
 781.157 48 694.157 -22 545.157 -22 c 0
554.939 109.893 m 0
 746.411 109.893 824.157 258.03 824.157 453 c 2
 824.157 894 l 1
 782.851 907.425 719.93 920.286 645.065 920.286 c 0
 397.319 920.286 280.313 681.548 280.313 465.131 c 0
 280.313 278.577 364.945 109.893 554.939 109.893 c 0
EndSplineSet
EndChar

StartChar: acute
Encoding: 180 180 126
Width: 618
VWidth: 0
GlyphClass: 2
Flags: W
LayerCount: 2
Fore
SplineSet
93 1136 m 1
 319 1456 l 1
 531 1456 l 1
 223 1136 l 1
 93 1136 l 1
EndSplineSet
EndChar

StartChar: ae
Encoding: 230 230 129
Width: 1716
VWidth: 0
GlyphClass: 2
Flags: W
LayerCount: 2
Fore
SplineSet
451 -22 m 0
 232 -22 91 96 91 286 c 0
 91 603 420 609 738 609 c 2
 773 609 l 1
 773 632 l 2
 773 831 667 916 531 916 c 0
 422 916 309 898 198 798 c 1
 130 908 l 1
 273 1021 394 1052 541 1052 c 0
 692 1052 820 976 873 849 c 1
 945 972 1068 1052 1247 1052 c 0
 1454 1052 1591 922 1591 755 c 0
 1591 510 1253 445 921 445 c 1
 945 233 1073 114 1257 114 c 0
 1408 114 1499 179 1564 232 c 1
 1632 122 l 1
 1512 25 1402 -22 1246 -22 c 0
 1066 -22 927 61 852 213 c 1
 782 87 659 -22 451 -22 c 0
474 114 m 0
 694 114 775 276 775 493 c 1
 637 490 l 2
 452 485 260 465 260 294 c 0
 260 167 347 114 474 114 c 0
919 566 m 1
 1152 566 1428 597 1428 758 c 0
 1428 852 1363 916 1248 916 c 0
 1082 916 933 794 919 566 c 1
EndSplineSet
EndChar

StartChar: ampersand
Encoding: 38 38 132
Width: 1541
VWidth: 0
GlyphClass: 2
Flags: W
LayerCount: 2
Fore
SplineSet
279 1291 m 0
 279 1452 388 1586 631 1586 c 0
 824 1586 966 1478 966 1293 c 0
 966 1117 775 963 652 887 c 1
 1064 401 l 1
 1125 496 1179 662 1199 801 c 0
 1206 846 1210 888 1210 930 c 1
 1359 909 l 1
 1351 669 1272 430 1169 286 c 1
 1238 210 1299 151 1402 115 c 0
 1431 105 1466 96 1505 87 c 1
 1381 -12 l 1
 1241 10 1165 101 1084 187 c 1
 977 71 838 -24 627 -24 c 0
 338 -24 127 139 127 401 c 0
 127 658 317 829 456 921 c 1
 342 1029 279 1168 279 1291 c 0
286 418 m 0
 286 197 453 115 630 115 c 0
 802 115 898 197 985 292 c 1
 534 817 l 1
 380 707 286 586 286 418 c 0
638 1452 m 0
 487 1452 432 1380 432 1288 c 0
 432 1188 497 1064 571 984 c 1
 671 1044 812 1168 812 1289 c 0
 812 1398 735 1452 638 1452 c 0
EndSplineSet
EndChar

StartChar: approxequal
Encoding: 8776 8776 134
Width: 1328
VWidth: 0
GlyphClass: 2
Flags: W
LayerCount: 2
Fore
SplineSet
278 261 m 1
 164 289 l 1
 199 433 293 546 455 546 c 0
 655 546 783 380 889 380 c 0
 985 380 1025 463 1055 546 c 1
 1165 518 l 1
 1132 375 1050 262 883 262 c 0
 698 262 576 426 452 426 c 0
 349 426 303 349 278 261 c 1
277 634 m 1
 162 661 l 1
 195 808 289 917 453 917 c 0
 636 917 774 752 887 752 c 0
 984 752 1024 832 1053 918 c 1
 1163 890 l 1
 1133 745 1047 634 881 634 c 0
 697 634 578 799 449 799 c 0
 347 799 302 721 277 634 c 1
EndSplineSet
EndChar

StartChar: asciicircum
Encoding: 94 94 136
Width: 1390
VWidth: 0
GlyphClass: 2
Flags: W
LayerCount: 2
Fore
SplineSet
172 550 m 1
 644 1432 l 1
 741 1432 l 1
 1220 550 l 1
 1065 550 l 1
 691 1260 l 1
 328 550 l 1
 172 550 l 1
EndSplineSet
EndChar

StartChar: asciitilde
Encoding: 126 126 137
Width: 1331
VWidth: 0
GlyphClass: 2
Flags: W
LayerCount: 2
Fore
SplineSet
265 385 m 1
 150 440 l 1
 182 593 291 705 445 705 c 0
 504 705 558 683 605 664 c 0
 704 623 821 545 892 545 c 0
 988 545 1041 641 1059 723 c 1
 1184 684 l 1
 1147 528 1046 410 891 410 c 0
 841 410 791 433 751 452 c 0
 652 498 534 571 447 571 c 0
 341 571 285 475 265 385 c 1
EndSplineSet
EndChar

StartChar: asterisk
Encoding: 42 42 138
Width: 1068
VWidth: 0
GlyphClass: 2
Flags: W
LayerCount: 2
Fore
SplineSet
708 742 m 1
 550 1008 l 1
 395 740 l 1
 271 815 l 1
 468 1063 l 1
 176 1151 l 1
 217 1276 l 1
 499 1153 l 1
 463 1456 l 1
 617 1456 l 1
 596 1158 l 1
 828 1279 l 1
 892 1154 l 1
 630 1066 l 1
 834 815 l 1
 708 742 l 1
EndSplineSet
EndChar

StartChar: at
Encoding: 64 64 139
Width: 1953
VWidth: 0
GlyphClass: 2
Flags: W
LayerCount: 2
Fore
SplineSet
1002 -61 m 0
 544 -61 186 264 186 727 c 0
 186 1191 556 1524 1006 1524 c 0
 1420 1524 1769 1253 1769 839 c 0
 1769 525 1568 310 1347 310 c 0
 1229 310 1169 399 1169 525 c 1
 1113 392 973 302 862 302 c 0
 643 302 562 493 562 655 c 0
 562 941 787 1183 1029 1183 c 0
 1131 1183 1212 1136 1249 1067 c 1
 1267 1152 l 1
 1407 1152 l 1
 1321 756 1268 541 1268 471 c 0
 1268 415 1289 385 1347 385 c 0
 1518 385 1657 573 1657 842 c 0
 1657 1207 1347 1430 1004 1430 c 0
 609 1430 313 1128 313 725 c 0
 313 309 601 40 1007 40 c 0
 1268 40 1401 124 1520 230 c 1
 1577 170 l 1
 1454 31 1254 -61 1002 -61 c 0
888 410 m 0
 1068 410 1197 667 1197 866 c 0
 1197 981 1143 1088 1032 1088 c 0
 849 1088 701 878 701 635 c 0
 701 488 777 410 888 410 c 0
EndSplineSet
EndChar

StartChar: b
Encoding: 98 98 141
Width: 1196
VWidth: 0
GlyphClass: 2
Flags: W
AnchorPoint: "bottom" 852 0 basechar 0
AnchorPoint: "top" 816 1536 basechar 0
LayerCount: 2
Fore
SplineSet
591 -22 m 0
 358 -22 181 71 181 71 c 1
 181 1560 l 1
 351 1560 l 1
 351 879 l 1
 443 1013 552 1052 687 1052 c 0
 910 1052 1090 865 1090 545 c 0
 1090 215 895 -22 591 -22 c 0
582 114 m 0
 806 114 916 309 916 550 c 0
 916 793 800 920 658 920 c 0
 445 920 351 728 351 538 c 2
 351 151 l 1
 351 151 434 114 582 114 c 0
EndSplineSet
EndChar

StartChar: backslash
Encoding: 92 92 142
Width: 954
VWidth: 0
GlyphClass: 2
Flags: W
LayerCount: 2
Fore
SplineSet
712 0 m 1
 83 1456 l 1
 250 1456 l 1
 875 0 l 1
 712 0 l 1
EndSplineSet
EndChar

StartChar: bar
Encoding: 124 124 143
Width: 564
VWidth: 0
GlyphClass: 2
Flags: W
LayerCount: 2
Fore
SplineSet
200 -200 m 1
 200 1541 l 1
 364 1541 l 1
 364 -200 l 1
 200 -200 l 1
EndSplineSet
EndChar

StartChar: braceleft
Encoding: 123 123 144
Width: 747
VWidth: 0
GlyphClass: 2
Flags: W
LayerCount: 2
Fore
SplineSet
657 -225 m 1
 433 -219 275 -128 275 69 c 2
 275 319 l 2
 275 449 223 548 83 560 c 1
 83 695 l 1
 198 703 274 783 275 912 c 1
 275 1156 l 2
 275 1350 396 1480 658 1480 c 1
 658 1337 l 1
 545 1335 442 1281 442 1148 c 2
 442 875 l 2
 442 736 368 657 263 625 c 1
 380 582 442 467 442 360 c 2
 442 128 l 2
 442 -42 546 -82 657 -82 c 1
 657 -225 l 1
EndSplineSet
EndChar

StartChar: braceright
Encoding: 125 125 145
Width: 747
VWidth: 0
GlyphClass: 2
Flags: W
LayerCount: 2
Fore
SplineSet
91 1480 m 1
 315 1474 473 1383 473 1186 c 2
 473 936 l 2
 473 806 525 707 665 695 c 1
 665 560 l 1
 550 552 474 472 473 343 c 1
 473 99 l 2
 473 -95 352 -225 90 -225 c 1
 90 -82 l 1
 203 -80 306 -26 306 107 c 2
 306 380 l 2
 306 519 380 598 485 630 c 1
 368 673 306 788 306 895 c 2
 306 1127 l 2
 306 1297 202 1337 91 1337 c 1
 91 1480 l 1
EndSplineSet
EndChar

StartChar: bracketleft
Encoding: 91 91 146
Width: 731
VWidth: 0
GlyphClass: 2
Flags: W
LayerCount: 2
Fore
SplineSet
194 -200 m 1
 194 1510 l 1
 550 1510 l 1
 550 1388 l 1
 357 1388 l 1
 357 -78 l 1
 551 -78 l 1
 551 -200 l 1
 194 -200 l 1
EndSplineSet
EndChar

StartChar: bracketright
Encoding: 93 93 147
Width: 731
VWidth: 0
GlyphClass: 2
Flags: W
LayerCount: 2
Fore
SplineSet
538 1510 m 1
 538 -200 l 1
 182 -200 l 1
 182 -78 l 1
 375 -78 l 1
 375 1388 l 1
 181 1388 l 1
 181 1510 l 1
 538 1510 l 1
EndSplineSet
EndChar

StartChar: breve
Encoding: 728 728 148
Width: 639
VWidth: 0
GlyphClass: 2
Flags: W
AnchorPoint: "top" 327 1046 mark 0
LayerCount: 2
Fore
SplineSet
323 1221 m 0
 209 1221 95 1299 82 1456 c 1
 169 1456 l 1
 184 1369 250 1327 318 1327 c 0
 388 1327 460 1371 480 1456 c 1
 566 1456 l 1
 553 1299 438 1221 323 1221 c 0
EndSplineSet
EndChar

StartChar: brokenbar
Encoding: 166 166 149
Width: 557
VWidth: 0
GlyphClass: 2
Flags: W
LayerCount: 2
Fore
SplineSet
200 -491 m 1
 200 393 l 1
 357 393 l 1
 357 -491 l 1
 200 -491 l 1
200 677 m 1
 200 1545 l 1
 357 1545 l 1
 357 677 l 1
 200 677 l 1
EndSplineSet
EndChar

StartChar: bullet
Encoding: 8226 8226 150
Width: 1029
VWidth: 0
GlyphClass: 2
Flags: W
LayerCount: 2
Fore
SplineSet
512 427 m 0
 311 427 190 574 190 736 c 0
 190 940 360 1052 517 1052 c 0
 719 1052 839 901 839 743 c 0
 839 546 703 427 512 427 c 0
EndSplineSet
EndChar

StartChar: c
Encoding: 99 99 151
Width: 1030
VWidth: 0
GlyphClass: 2
Flags: W
AnchorPoint: "bottom" 582 0 basechar 0
AnchorPoint: "top" 591 1152 basechar 0
AnchorPoint: "ogonek" 709 0 basechar 0
LayerCount: 2
Fore
SplineSet
985 100 m 1
 600 -164 106 11 106 511 c 0
 106 996 575 1191 956 942 c 1
 898 825 l 1
 625 1011 280 925 280 510 c 0
 280 58 687 36 927 219 c 1
 985 100 l 1
EndSplineSet
EndChar

StartChar: caron
Encoding: 711 711 153
Width: 709
VWidth: 0
GlyphClass: 2
Flags: W
LayerCount: 2
Fore
SplineSet
278 1133 m 1
 39 1456 l 1
 186 1456 l 1
 350 1241 l 1
 518 1456 l 1
 672 1456 l 1
 434 1133 l 1
 278 1133 l 1
EndSplineSet
EndChar

StartChar: cedilla
Encoding: 184 184 159
Width: 762
VWidth: 0
GlyphClass: 2
Flags: W
AnchorPoint: "bottom" 390 0 mark 0
LayerCount: 2
Fore
SplineSet
347 -396 m 0
 287 -396 226 -385 172 -374 c 1
 180 -289 l 1
 230 -301 277 -313 331 -313 c 0
 397 -313 445 -297 445 -241 c 0
 445 -182 396 -168 336 -168 c 0
 327 -168 310 -170 299 -171 c 2
 267 -173 l 1
 300 17 l 1
 397 17 l 1
 379 -90 l 1
 388 -90 l 1
 492 -95 588 -131 588 -239 c 0
 588 -359 468 -396 347 -396 c 0
EndSplineSet
EndChar

StartChar: cent
Encoding: 162 162 160
Width: 1059
VWidth: 0
GlyphClass: 2
Flags: W
LayerCount: 2
Fore
SplineSet
553 -235 m 1
 553 -20 l 1
 298 6 105 213 105 503 c 0
 105 805 277 1024 553 1049 c 1
 553 1281 l 1
 661 1281 l 1
 661 1049 l 1
 790 1039 892 991 952 912 c 1
 875 801 l 1
 826 862 753 898 661 907 c 1
 661 120 l 1
 743 129 836 159 932 225 c 1
 968 87 l 1
 862 23 756 -10 661 -20 c 1
 661 -235 l 1
 553 -235 l 1
553 122 m 1
 553 904 l 1
 373 874 278 714 278 508 c 0
 278 285 390 148 553 122 c 1
EndSplineSet
EndChar

StartChar: circumflex
Encoding: 710 710 161
Width: 709
VWidth: 0
GlyphClass: 2
Flags: W
LayerCount: 2
Fore
SplineSet
273 1456 m 1
 430 1456 l 1
 659 1132 l 1
 527 1132 l 1
 349 1348 l 1
 171 1132 l 1
 45 1132 l 1
 273 1456 l 1
EndSplineSet
EndChar

StartChar: colon
Encoding: 58 58 163
Width: 651
VWidth: 0
GlyphClass: 2
Flags: W
LayerCount: 2
Fore
SplineSet
326 294 m 0
 414 294 458 233 458 171 c 0
 458 109 414 48 326 48 c 0
 238 48 194 109 194 171 c 0
 194 233 238 294 326 294 c 0
326 1078 m 0
 414 1078 458 1017 458 955 c 0
 458 893 414 832 326 832 c 0
 238 832 194 893 194 955 c 0
 194 1017 238 1078 326 1078 c 0
EndSplineSet
EndChar

StartChar: comma
Encoding: 44 44 164
Width: 575
VWidth: 0
GlyphClass: 2
Flags: W
AnchorPoint: "bottom" 311 346 mark 0
LayerCount: 2
Fore
SplineSet
143 -310 m 1
 250 207 l 1
 437 207 l 1
 274 -310 l 1
 143 -310 l 1
EndSplineSet
EndChar

StartChar: copyright
Encoding: 169 169 166
Width: 1880
VWidth: 0
GlyphClass: 2
Flags: W
LayerCount: 2
Fore
SplineSet
965 249 m 0
 670 249 498 473 498 729 c 0
 498 1042 706 1208 975 1208 c 0
 1085 1208 1180 1174 1258 1105 c 1
 1228 985 l 1
 1158 1048 1072 1080 969 1080 c 0
 759 1080 651 920 651 733 c 0
 651 504 784 380 995 380 c 0
 1092 380 1166 411 1224 460 c 1
 1261 339 l 1
 1178 279 1080 249 965 249 c 0
940 1480 m 0
 1354 1480 1692 1141 1692 727 c 0
 1692 314 1354 -25 940 -25 c 0
 526 -25 188 314 188 727 c 0
 188 1141 526 1480 940 1480 c 0
939 80 m 0
 1290 80 1568 374 1568 725 c 0
 1568 1077 1290 1371 939 1371 c 0
 587 1371 309 1077 309 725 c 0
 309 374 587 80 939 80 c 0
EndSplineSet
EndChar

StartChar: currency
Encoding: 164 164 167
Width: 1227
VWidth: 0
GlyphClass: 2
Flags: W
LayerCount: 2
Fore
SplineSet
990 659 m 0
 990 560 954 475 896 408 c 1
 1064 246 l 1
 1027 210 l 1
 861 371 l 1
 795 310 707 274 611 274 c 0
 522 274 439 308 374 363 c 1
 214 195 l 1
 178 232 l 1
 337 398 l 1
 273 467 232 559 232 661 c 0
 232 754 268 840 326 908 c 1
 163 1065 l 1
 202 1104 l 1
 362 947 l 1
 429 1009 519 1048 613 1048 c 0
 706 1048 789 1013 853 956 c 1
 1009 1120 l 1
 1049 1081 l 1
 891 917 l 1
 953 848 990 758 990 659 c 0
898 659 m 0
 898 826 773 965 610 965 c 0
 451 965 320 825 320 658 c 0
 320 489 447 351 609 351 c 0
 773 351 898 485 898 659 c 0
EndSplineSet
EndChar

StartChar: d
Encoding: 100 100 168
Width: 1203
VWidth: 0
GlyphClass: 2
Flags: W
AnchorPoint: "bottom" 820 0 basechar 0
AnchorPoint: "top" 784 1536 basechar 0
AnchorPoint: "ogonek" 720 0 basechar 0
LayerCount: 2
Fore
SplineSet
839 886 m 1
 763.657 912.908 696 920 630 920 c 0
 378 920 280 724 280 473 c 0
 280 243 397 110 558 110 c 0
 747 110 839 258 839 497 c 2
 839 886 l 1
863 161 m 1
 794 44 715 -22 552 -22 c 0
 318 -22 106 159 106 474 c 0
 106 869 335 1052 631 1052 c 0
 696 1052 773 1037 838 1014 c 1
 838 1560 l 1
 1008 1560 l 1
 1008 314 l 2
 1008 189 1022 121 1153 121 c 1
 1124 -14 l 1
 974 -14 890 44 863 161 c 1
EndSplineSet
EndChar

StartChar: dagger
Encoding: 8224 8224 169
Width: 1185
VWidth: 0
GlyphClass: 2
Flags: W
LayerCount: 2
Fore
SplineSet
513 0 m 1
 513 904 l 1
 190 904 l 1
 190 1026 l 1
 513 1026 l 1
 513 1456 l 1
 654 1456 l 1
 654 1026 l 1
 994 1026 l 1
 994 904 l 1
 654 904 l 1
 654 0 l 1
 513 0 l 1
EndSplineSet
EndChar

StartChar: daggerdbl
Encoding: 8225 8225 170
Width: 1192
VWidth: 0
GlyphClass: 2
Flags: W
LayerCount: 2
Fore
SplineSet
527 0 m 1
 527 440 l 1
 191 440 l 1
 191 557 l 1
 527 557 l 1
 527 988 l 1
 197 988 l 1
 197 1110 l 1
 527 1110 l 1
 527 1456 l 1
 671 1456 l 1
 671 1110 l 1
 1001 1110 l 1
 1001 988 l 1
 671 988 l 1
 671 557 l 1
 994 557 l 1
 994 440 l 1
 671 440 l 1
 671 0 l 1
 527 0 l 1
EndSplineSet
EndChar

StartChar: dblgravecmb
Encoding: 783 783 171
Width: 4
VWidth: 0
GlyphClass: 2
Flags: W
AnchorPoint: "top" 186 1048 mark 0
LayerCount: 2
Fore
SplineSet
-22 1143 m 1
 -297 1456 l 1
 -121 1456 l 1
 93 1143 l 1
 -22 1143 l 1
241 1143 m 1
 -28 1456 l 1
 142 1456 l 1
 359 1143 l 1
 241 1143 l 1
EndSplineSet
EndChar

StartChar: degree
Encoding: 176 176 173
Width: 1052
VWidth: 0
GlyphClass: 2
Flags: W
LayerCount: 2
Fore
SplineSet
526 936 m 0
 662 936 730 1043 730 1149 c 0
 730 1283 635 1359 526 1359 c 0
 391 1359 322 1255 322 1149 c 0
 322 1015 409 936 526 936 c 0
526 815 m 0
 321 815 190 975 190 1148 c 0
 190 1365 361 1480 526 1480 c 0
 733 1480 862 1322 862 1148 c 0
 862 930 689 815 526 815 c 0
EndSplineSet
EndChar

StartChar: dieresis
Encoding: 168 168 174
Width: 896
VWidth: 0
GlyphClass: 2
Flags: W
AnchorPoint: "top" 437 1152 mark 0
LayerCount: 2
Fore
SplineSet
200 1362 m 2
 200 1386 l 2
 200 1431 237 1468 282 1468 c 0
 327 1468 364 1431 364 1386 c 2
 364 1362 l 2
 364 1317 327 1280 282 1280 c 0
 237 1280 200 1317 200 1362 c 2
532 1362 m 2
 532 1386 l 2
 532 1431 569 1468 614 1468 c 0
 659 1468 696 1431 696 1386 c 2
 696 1362 l 2
 696 1317 659 1280 614 1280 c 0
 569 1280 532 1317 532 1362 c 2
EndSplineSet
EndChar

StartChar: divide
Encoding: 247 247 175
Width: 1445
VWidth: 0
GlyphClass: 2
Flags: W
LayerCount: 2
Fore
SplineSet
622 896 m 1
 622 1106 l 1
 830 1106 l 1
 830 896 l 1
 622 896 l 1
208 527 m 1
 208 666 l 1
 1234 666 l 1
 1234 527 l 1
 208 527 l 1
622 80 m 1
 622 290 l 1
 830 290 l 1
 830 80 l 1
 622 80 l 1
EndSplineSet
EndChar

StartChar: dollar
Encoding: 36 36 176
Width: 1102
VWidth: 0
GlyphClass: 2
Flags: W
LayerCount: 2
Fore
SplineSet
547 -196 m 1
 547 1747 l 1
 611 1747 l 1
 611 -196 l 1
 547 -196 l 1
EndSplineSet
Refer: 85 83 N 1 0 0 1 0 0 2
EndChar

StartChar: dotaccent
Encoding: 729 729 177
Width: 534
VWidth: 0
GlyphClass: 2
Flags: W
AnchorPoint: "top" 315 1030 mark 0
LayerCount: 2
Fore
SplineSet
194 1293 m 1
 194 1456 l 1
 354 1456 l 1
 354 1293 l 1
 194 1293 l 1
EndSplineSet
EndChar

StartChar: dotaccentcmb
Encoding: 775 775 178
Width: 534
VWidth: 0
GlyphClass: 2
Flags: W
AnchorPoint: "top" 315 1030 mark 0
LayerCount: 2
Fore
SplineSet
194 1246 m 1
 194 1409 l 1
 354 1409 l 1
 354 1246 l 1
 194 1246 l 1
EndSplineSet
EndChar

StartChar: dotlessi
Encoding: 305 305 179
Width: 633
VWidth: 0
GlyphClass: 2
Flags: W
AnchorPoint: "top" 272 1023 basechar 0
LayerCount: 2
Fore
SplineSet
659 26 m 1
 589 -3 520 -18 456 -18 c 0
 308 -18 193 66 193 262 c 2
 193 1026 l 1
 357 1026 l 1
 357 267 l 2
 357 149 411 111 484 111 c 0
 530 111 583 126 636 145 c 1
 659 26 l 1
EndSplineSet
EndChar

StartChar: dotlessj
Encoding: 567 567 180
Width: 558
VWidth: 0
GlyphClass: 2
Flags: W
AnchorPoint: "top" 299 1152 basechar 0
LayerCount: 2
Fore
SplineSet
101 -464 m 0
 44 -464 -17 -452 -50 -443 c 1
 -35 -311 l 1
 -35 -311 20 -329 78 -329 c 0
 189 -329 216 -269 216 -76 c 2
 216 1026 l 1
 381 1026 l 1
 381 -84 l 2
 381 -360 302 -464 101 -464 c 0
EndSplineSet
EndChar

StartChar: e
Encoding: 101 101 181
Width: 1070
VWidth: 0
GlyphClass: 2
Flags: W
AnchorPoint: "ogonek" 863 56 basechar 0
AnchorPoint: "bottom" 650 0 basechar 0
AnchorPoint: "top" 610 1122 basechar 0
LayerCount: 2
Fore
SplineSet
106 505 m 0
 103 803 282 1052 612 1052 c 0
 819 1052 951 922 951 755 c 0
 951 510 613 398 290 398 c 1
 384 -28 813 121 922 219 c 1
 980 100 l 1
 672 -137 111 -44 106 505 c 0
279 519 m 1
 485 519 788 597 788 758 c 0
 788 852 715 920 600 920 c 0
 418 920 280 761 279 519 c 1
EndSplineSet
EndChar

StartChar: eight
Encoding: 56 56 189
Width: 1316
VWidth: 0
GlyphClass: 2
Flags: W
LayerCount: 2
Fore
SplineSet
657 -24 m 0
 381 -24 184 152 184 396 c 0
 184 609 313 770 486 823 c 1
 334 872 219 1004 219 1197 c 0
 219 1457 431 1586 657 1586 c 0
 916 1586 1097 1421 1097 1197 c 0
 1097 1004 973 872 821 823 c 1
 994 770 1132 609 1132 396 c 0
 1132 120 922 -24 657 -24 c 0
657 114 m 0
 839 114 955 232 955 403 c 0
 955 620 808 730 657 762 c 1
 494 728 361 606 361 403 c 0
 361 224 484 114 657 114 c 0
657 889 m 1
 808 918 932 1010 932 1199 c 0
 932 1355 807 1454 657 1454 c 0
 496 1454 384 1342 384 1199 c 0
 384 1010 506 918 657 889 c 1
EndSplineSet
EndChar

StartChar: ellipsis
Encoding: 8230 8230 190
Width: 1604
VWidth: 0
GlyphClass: 2
Flags: W
LayerCount: 2
Fore
SplineSet
169 0 m 1
 169 210 l 1
 386 210 l 1
 386 0 l 1
 169 0 l 1
696 0 m 1
 696 210 l 1
 913 210 l 1
 913 0 l 1
 696 0 l 1
1223 0 m 1
 1223 210 l 1
 1440 210 l 1
 1440 0 l 1
 1223 0 l 1
EndSplineSet
EndChar

StartChar: emdash
Encoding: 8212 8212 192
Width: 2496
VWidth: 0
GlyphClass: 2
Flags: W
LayerCount: 2
Fore
SplineSet
200 489 m 1
 200 626 l 1
 2296 626 l 1
 2296 489 l 1
 200 489 l 1
EndSplineSet
EndChar

StartChar: endash
Encoding: 8211 8211 193
Width: 1466
VWidth: 0
GlyphClass: 2
Flags: W
LayerCount: 2
Fore
SplineSet
200 489 m 1
 200 626 l 1
 1266 626 l 1
 1266 489 l 1
 200 489 l 1
EndSplineSet
EndChar

StartChar: equal
Encoding: 61 61 195
Width: 1274
VWidth: 0
GlyphClass: 2
Flags: W
LayerCount: 2
Fore
SplineSet
201 403 m 1
 201 540 l 1
 1074 540 l 1
 1074 403 l 1
 201 403 l 1
200 809 m 1
 200 947 l 1
 1073 947 l 1
 1073 809 l 1
 200 809 l 1
EndSplineSet
EndChar

StartChar: eth
Encoding: 240 240 196
Width: 1173
VWidth: 0
GlyphClass: 2
Flags: W
LayerCount: 2
Fore
SplineSet
837 1260 m 1
 972 1119 1079 906 1079 602 c 0
 1079 234 906 -22 589 -22 c 0
 288 -22 98 186 98 446 c 0
 98 738 299 915 556 915 c 0
 729 915 833 838 902 723 c 1
 902 733 l 2
 902 928 819 1076 715 1181 c 1
 529 1061 l 1
 467 1156 l 1
 626 1258 l 1
 537 1325 447 1366 392 1383 c 1
 467 1490 l 1
 551 1462 653 1414 750 1338 c 1
 933 1456 l 1
 994 1361 l 1
 837 1260 l 1
582 118 m 0
 798 118 887 310 887 536 c 1
 845 664 745 775 582 775 c 0
 391 775 274 638 274 441 c 0
 274 239 408 118 582 118 c 0
EndSplineSet
EndChar

StartChar: exclam
Encoding: 33 33 197
Width: 587
VWidth: 0
GlyphClass: 2
Flags: W
LayerCount: 2
Fore
SplineSet
295 -6 m 0
 222 -6 182 46 182 106 c 0
 182 176 239 217 296 217 c 0
 369 217 409 165 409 105 c 0
 409 35 352 -6 295 -6 c 0
258 433 m 1
 197 1560 l 1
 384 1560 l 1
 324 433 l 1
 258 433 l 1
EndSplineSet
EndChar

StartChar: f
Encoding: 102 102 199
Width: 750
VWidth: 0
GlyphClass: 2
Flags: W
AnchorPoint: "bottom" 377 0 basechar 0
AnchorPoint: "top" 543 1464 basechar 0
LayerCount: 2
Fore
SplineSet
407 0 m 1
 237 0 l 1
 237 920 l 1
 35 920 l 1
 35 1026 l 1
 237 1026 l 1
 237 1147 l 2
 237 1380 334 1560 714 1560 c 1
 731 1424 l 1
 492 1424 407 1336 407 1159 c 2
 407 1026 l 1
 666 1026 l 1
 666 920 l 1
 407 920 l 1
 407 0 l 1
EndSplineSet
EndChar

StartChar: f.alt
Encoding: 65537 -1 200
Width: 711
VWidth: 0
GlyphClass: 2
Flags: W
LayerCount: 2
Fore
SplineSet
173 -404 m 1
 153 -269 l 1
 239 -255 266 -227 266 -76 c 2
 266 919 l 1
 64 919 l 1
 64 1026 l 1
 266 1026 l 1
 266 1194 l 2
 266 1447 404 1526 667 1526 c 2
 721 1526 l 1
 721 1406 l 1
 542 1406 425 1393 425 1196 c 2
 425 1026 l 1
 671 1026 l 1
 671 919 l 1
 425 919 l 1
 425 -83 l 2
 425 -215 403 -393 173 -404 c 1
EndSplineSet
EndChar

StartChar: five
Encoding: 53 53 201
Width: 1316
VWidth: 0
GlyphClass: 2
Flags: W
LayerCount: 2
Fore
SplineSet
666 -24 m 0
 505 -24 330 46 211 179 c 1
 302 295 l 1
 410 171 545 123 664 123 c 0
 866 123 983 271 983 472 c 0
 983 637 889 796 713 796 c 0
 589 796 491 734 450 672 c 1
 293 714 l 1
 308 1560 l 1
 1039 1560 l 1
 1039 1410 l 1
 461 1410 l 1
 440 830 l 1
 502 896 626 944 721 944 c 0
 971 944 1145 740 1145 470 c 0
 1145 198 974 -24 666 -24 c 0
EndSplineSet
EndChar

StartChar: florin
Encoding: 402 402 202
Width: 1088
VWidth: 0
GlyphClass: 2
Flags: W
LayerCount: 2
Fore
SplineSet
176 -242 m 0
 145 -242 110 -237 72 -226 c 1
 84 -88 l 1
 111 -99 137 -104 162 -104 c 0
 274 -104 315 5 332 97 c 2
 480 906 l 1
 321 906 l 1
 339 1026 l 1
 501 1026 l 1
 534 1201 l 2
 570 1393 628 1526 845 1526 c 0
 895 1526 944 1518 988 1507 c 1
 980 1362 l 1
 947 1375 911 1384 871 1384 c 0
 756 1384 717 1326 700 1229 c 2
 665 1026 l 1
 862 1026 l 1
 844 906 l 1
 645 906 l 1
 522 210 l 2
 481 -18 424 -242 176 -242 c 0
EndSplineSet
EndChar

StartChar: four
Encoding: 52 52 203
Width: 1316
VWidth: 0
GlyphClass: 2
Flags: W
LayerCount: 2
Fore
SplineSet
929 868 m 1
 929 509 l 1
 1158 509 l 1
 1158 370 l 1
 930 370 l 1
 930 0 l 1
 787 0 l 1
 787 370 l 1
 161 370 l 1
 161 499 l 1
 596 1560 l 1
 764 1560 l 1
 350 509 l 1
 787 509 l 1
 787 868 l 1
 929 868 l 1
EndSplineSet
EndChar

StartChar: four.alt
Encoding: 65538 -1 204
Width: 1240
VWidth: 0
GlyphClass: 2
Flags: W
LayerCount: 2
Fore
SplineSet
774 0 m 1
 774 386 l 1
 125 386 l 1
 125 515 l 1
 698 1456 l 1
 945 1456 l 1
 945 520 l 1
 1163 520 l 1
 1163 386 l 1
 946 386 l 1
 946 0 l 1
 774 0 l 1
319 520 m 1
 774 520 l 1
 774 1287 l 1
 622 1031.66666667 470.333333333 776 319 520 c 1
EndSplineSet
EndChar

StartChar: fraction
Encoding: 8260 8260 205
Width: 982
VWidth: 0
GlyphClass: 2
Flags: W
LayerCount: 2
Fore
SplineSet
0 0 m 1
 833 1456 l 1
 982 1456 l 1
 151 0 l 1
 0 0 l 1
EndSplineSet
EndChar

StartChar: g
Encoding: 103 103 206
Width: 1161
VWidth: 0
GlyphClass: 2
Flags: W
AnchorPoint: "bottom" 588 -512 basechar 0
AnchorPoint: "top" 641 1027 basechar 0
LayerCount: 2
Fore
SplineSet
555.83 109.893 m 0
 747.302 109.893 836.048 258.029 836.048 453 c 2
 836.048 894 l 1
 794.741 907.425 720.821 920.285 645.955 920.285 c 0
 398.21 920.285 281.204 681.548 281.204 465.131 c 0
 281.204 278.577 365.836 109.893 555.83 109.893 c 0
528.048 -22 m 0
 285.349 -22 106 186.521 106 469.838 c 0
 106 846.2 367.277 1052 653.048 1052 c 0
 782.048 1052 926.048 1023 1006.048 971 c 1
 1006.048 9 l 2
 1006.048 -309 845.048 -566 497.048 -566 c 0
 409.048 -566 309.048 -549 196.048 -513 c 1
 214.048 -370 l 1
 319.048 -407 410.048 -424 489.048 -424 c 0
 721.048 -424 836.048 -272 836.048 -12 c 2
 836.048 136 l 1
 770.048 21 664.048 -22 528.048 -22 c 0
EndSplineSet
EndChar

StartChar: gcommaaccent
Encoding: 291 291 209
Width: 1129
VWidth: 0
GlyphClass: 2
Flags: W
LayerCount: 2
Fore
SplineSet
524 -494 m 0
 427 -494 299 -470 199 -433 c 1
 218 -280 l 1
 308 -326 426 -357 511 -357 c 0
 712 -357 845 -232 845 -44 c 2
 845 133 l 1
 773 39 642 -22 506 -22 c 0
 266 -22 100 162 100 438 c 0
 100 804 328 1048 660 1048 c 0
 789 1048 929 1014 1009 962 c 1
 1009 -23 l 2
 1009 -306 811 -494 524 -494 c 0
530 116 m 0
 719 116 845 261 845 453 c 2
 845 872 l 1
 805 893 730 907 657 907 c 0
 425 907 270 723 270 448 c 0
 270 249 374 116 530 116 c 0
426 1162 m 1
 583 1625 l 1
 709 1625 l 1
 606 1162 l 1
 426 1162 l 1
EndSplineSet
EndChar

StartChar: germandbls
Encoding: 223 223 211
Width: 1263
VWidth: 0
GlyphClass: 2
Flags: W
LayerCount: 2
Fore
SplineSet
1181 341 m 0
 1181 102 988 -22 800 -22 c 0
 656 -22 551 47 479 138 c 1
 544 243 l 1
 605 173 687 109 796 109 c 0
 919 109 1024 199 1024 324 c 0
 1024 580 770 616 585 713 c 0
 551 731 533 760 533 790 c 0
 533 823 555 858 604 881 c 0
 750 948 819 1064 819 1164 c 0
 819 1266 747 1351 611 1351 c 0
 421 1351 344 1197 345 1007 c 2
 349 0 l 1
 184 0 l 1
 182 1040 l 2
 182 1325 347 1480 612 1480 c 0
 877 1480 996 1329 996 1168 c 0
 996 1026 902 876 735 819 c 0
 714 812 702 805 702 797 c 0
 702 790 712 782 738 775 c 0
 986 704 1181 601 1181 341 c 0
EndSplineSet
EndChar

StartChar: grave
Encoding: 96 96 212
Width: 629
VWidth: 0
GlyphClass: 2
Flags: W
LayerCount: 2
Fore
SplineSet
416 1160 m 1
 84 1480 l 1
 298 1480 l 1
 545 1160 l 1
 416 1160 l 1
EndSplineSet
EndChar

StartChar: greater
Encoding: 62 62 214
Width: 1165
VWidth: 0
GlyphClass: 2
Flags: W
LayerCount: 2
Fore
SplineSet
91 58 m 1
 91 212 l 1
 859 555 l 1
 96 926 l 1
 96 1078 l 1
 1080 594 l 1
 1080 505 l 1
 91 58 l 1
EndSplineSet
EndChar

StartChar: greaterequal
Encoding: 8805 8805 215
Width: 1339
VWidth: 0
GlyphClass: 2
Flags: W
LayerCount: 2
Fore
SplineSet
171 0 m 1
 171 122 l 1
 1160 122 l 1
 1160 0 l 1
 171 0 l 1
206 1252 m 1
 1141 779 l 1
 1141 699 l 1
 202 249 l 1
 202 390 l 1
 963 738 l 1
 206 1112 l 1
 206 1252 l 1
EndSplineSet
EndChar

StartChar: guillemotleft
Encoding: 171 171 216
Width: 965
VWidth: 0
GlyphClass: 2
Flags: W
LayerCount: 2
Fore
SplineSet
355 173 m 1
 87 543 l 1
 361 916 l 1
 514 916 l 1
 257 543 l 1
 506 173 l 1
 355 173 l 1
714 173 m 1
 452 543 l 1
 719 916 l 1
 878 916 l 1
 615 543 l 1
 871 173 l 1
 714 173 l 1
EndSplineSet
EndChar

StartChar: guillemotright
Encoding: 187 187 217
Width: 990
VWidth: 0
GlyphClass: 2
Flags: W
LayerCount: 2
Fore
SplineSet
636 916 m 1
 905 544 l 1
 631 173 l 1
 480 173 l 1
 733 544 l 1
 487 916 l 1
 636 916 l 1
253 916 m 1
 515 544 l 1
 248 173 l 1
 88 173 l 1
 352 544 l 1
 95 916 l 1
 253 916 l 1
EndSplineSet
EndChar

StartChar: guilsinglleft
Encoding: 8249 8249 218
Width: 652
VWidth: 0
GlyphClass: 2
Flags: W
LayerCount: 2
Fore
SplineSet
384 171 m 1
 115 541 l 1
 389 914 l 1
 548 914 l 1
 285 541 l 1
 540 171 l 1
 384 171 l 1
EndSplineSet
EndChar

StartChar: guilsinglright
Encoding: 8250 8250 219
Width: 652
VWidth: 0
GlyphClass: 2
Flags: W
LayerCount: 2
Fore
SplineSet
306 914 m 1
 577 542 l 1
 300 171 l 1
 143 171 l 1
 405 542 l 1
 151 914 l 1
 306 914 l 1
EndSplineSet
EndChar

StartChar: h
Encoding: 104 104 220
Width: 1239
VWidth: 0
GlyphClass: 2
Flags: W
AnchorPoint: "bottom" 628 0 basechar 0
AnchorPoint: "top" 720 1260 basechar 0
LayerCount: 2
Fore
SplineSet
1199 121 m 1
 1172 -14 l 1
 1155 -14 l 2
 933 -14 873 112 873 338 c 2
 873 607 l 2
 873 853 802 920 657 920 c 0
 495 920 350 753 350 532 c 2
 350 0 l 1
 180 0 l 1
 180 1560 l 1
 350 1560 l 1
 350 876 l 1
 432 986 546 1052 709 1052 c 0
 895 1052 1043 946 1043 625 c 2
 1043 311 l 2
 1043 181 1066 121 1171 121 c 2
 1199 121 l 1
EndSplineSet
EndChar

StartChar: hbar
Encoding: 295 295 221
Width: 1233
VWidth: 0
GlyphClass: 2
Flags: W
LayerCount: 2
Fore
SplineSet
55 1207 m 1
 55 1341 l 1
 606 1341 l 1
 606 1207 l 1
 55 1207 l 1
EndSplineSet
Refer: 220 104 N 1 0 0 1 0 0 2
EndChar

StartChar: hungarumlaut
Encoding: 733 733 223
Width: 972
VWidth: 0
GlyphClass: 2
Flags: W
AnchorPoint: "top" 316 1152 mark 0
LayerCount: 2
Fore
SplineSet
172 1143 m 1
 389 1456 l 1
 559 1456 l 1
 290 1143 l 1
 172 1143 l 1
438 1143 m 1
 652 1456 l 1
 828 1456 l 1
 553 1143 l 1
 438 1143 l 1
EndSplineSet
EndChar

StartChar: hyphen
Encoding: 45 45 224
Width: 1199
VWidth: 0
GlyphClass: 2
Flags: W
LayerCount: 2
Fore
SplineSet
200 637 m 1
 200 780 l 1
 999 780 l 1
 999 637 l 1
 200 637 l 1
EndSplineSet
EndChar

StartChar: i
Encoding: 105 105 225
Width: 633
VWidth: 0
GlyphClass: 2
Flags: W
AnchorPoint: "bottom" 282 1 basechar 0
LayerCount: 2
Fore
SplineSet
300 1236 m 2
 240 1236 180 1274 180 1347 c 0
 180 1421 240 1458 300 1458 c 2
 301 1458 l 2
 359 1458 418 1420 418 1346 c 0
 418 1273 360 1236 301 1236 c 2
 300 1236 l 2
567 -10 m 1
 540 -12 515 -13 492 -13 c 0
 219 -13 207 144 207 326 c 2
 207 1026 l 1
 377 1026 l 1
 377 320 l 2
 377 195 377 123 540 123 c 0
 553 123 566 123 581 124 c 1
 567 -10 l 1
EndSplineSet
EndChar

StartChar: infinity
Encoding: 8734 8734 233
Width: 1683
VWidth: 0
GlyphClass: 2
Flags: W
LayerCount: 2
Fore
SplineSet
461 236 m 0
 234 236 106 416 106 612 c 0
 106 818 254 944 456 944 c 0
 652 944 750 823 847 692 c 1
 939 817 1049 944 1231 944 c 0
 1453 944 1581 793 1581 595 c 0
 1581 366 1408 236 1229 236 c 0
 1087 236 971 320 845 488 c 1
 752 363 629 236 461 236 c 0
464 355 m 0
 625 355 702 481 778 589 c 1
 700 705 604 829 454 829 c 0
 308 829 236 716 236 592 c 0
 236 444 337 355 464 355 c 0
1232 355 m 0
 1377 355 1442 466 1442 618 c 0
 1442 755 1342 829 1227 829 c 0
 1067 829 983 702 911 592 c 1
 999 473 1065 355 1232 355 c 0
EndSplineSet
EndChar

StartChar: integral
Encoding: 8747 8747 234
Width: 794
VWidth: 0
GlyphClass: 2
Flags: W
LayerCount: 2
Fore
SplineSet
180 -259 m 0
 121 -259 92 -251 44 -238 c 1
 42 -109 l 1
 68 -119 115 -124 152 -124 c 0
 288 -124 312 -43 312 93 c 2
 312 1150 l 2
 312 1372 388 1526 610 1526 c 0
 665 1526 702 1515 746 1505 c 1
 748 1376 l 1
 722 1386 675 1391 638 1391 c 0
 502 1391 476 1310 476 1174 c 2
 476 117 l 2
 476 -105 402 -259 180 -259 c 0
EndSplineSet
EndChar

StartChar: j
Encoding: 106 106 237
Width: 595
VWidth: 0
GlyphClass: 2
Flags: W
AnchorPoint: "bottom" 676 0 basechar 0
AnchorPoint: "top" 700 1536 basechar 0
LayerCount: 2
Fore
SplineSet
350 1236 m 2
 290 1236 230 1274 230 1347 c 0
 230 1421 290 1458 350 1458 c 2
 351 1458 l 2
 409 1458 468 1420 468 1346 c 0
 468 1273 410 1236 351 1236 c 2
 350 1236 l 2
151 -464 m 0
 94 -464 33 -452 0 -443 c 1
 15 -311 l 1
 15 -311 70 -329 128 -329 c 0
 239 -329 261 -269 261 -76 c 2
 261 1026 l 1
 431 1026 l 1
 431 -84 l 2
 431 -360 352 -464 151 -464 c 0
EndSplineSet
EndChar

StartChar: k
Encoding: 107 107 239
Width: 1073
VWidth: 0
GlyphClass: 2
Flags: W
AnchorPoint: "bottom" 608 -1 basechar 0
AnchorPoint: "top" 759 1152 basechar 0
LayerCount: 2
Fore
SplineSet
350 0 m 1
 180 0 l 1
 180 1560 l 1
 350 1560 l 1
 350 556 l 1
 791 1026 l 1
 998 1026 l 1
 506 513 l 1
 1060 0 l 1
 843 0 l 1
 350 460 l 1
 350 0 l 1
EndSplineSet
EndChar

StartChar: k.alt
Encoding: 65539 -1 240
Width: 1068
VWidth: 0
GlyphClass: 2
Flags: W
LayerCount: 2
Fore
SplineSet
188 0 m 1
 188 1526 l 1
 351 1526 l 1
 351 308 l 1
 808 1026 l 1
 985 1026 l 1
 689 580 l 1
 1053 0 l 1
 872 0 l 1
 602 445 l 1
 313 0 l 1
 188 0 l 1
EndSplineSet
EndChar

StartChar: k.alt.2
Encoding: 65540 -1 241
Width: 1126
VWidth: 0
GlyphClass: 2
Flags: W
LayerCount: 2
Fore
SplineSet
1120 131 m 1
 1108 -4 l 1
 1075 -17 1044 -24 1015 -24 c 0
 898 -24 812 78 718 206 c 2
 582 390 l 1
 317 27 l 1
 294 -1 265 -15 239 -15 c 0
 203 -15 172 11 172 60 c 2
 172 1526 l 1
 336 1526 l 1
 336 288 l 1
 860 1026 l 1
 1008 976 l 1
 671 512 l 1
 831 295 l 2
 896 207 960 110 1048 110 c 0
 1070 110 1094 117 1120 131 c 1
EndSplineSet
EndChar

StartChar: kgreenlandic
Encoding: 312 312 243
Width: 1071
VWidth: 0
GlyphClass: 2
Flags: W
LayerCount: 2
Fore
SplineSet
188 0 m 1
 188 1026 l 1
 353 1026 l 1
 353 557 l 1
 800 1026 l 1
 1024 1026 l 1
 508 512 l 1
 691 338 871 174 1062 0 c 1
 843 0 l 1
 353 471 l 1
 353 0 l 1
 188 0 l 1
EndSplineSet
EndChar

StartChar: l
Encoding: 108 108 244
Width: 661
VWidth: 0
GlyphClass: 2
Flags: W
AnchorPoint: "bottom" 290 0 basechar 0
AnchorPoint: "top" 298 1474 basechar 0
LayerCount: 2
Fore
SplineSet
604 -10 m 1
 575 -12 549 -13 524 -13 c 0
 234 -13 214 144 214 326 c 2
 214 1560 l 1
 384 1560 l 1
 384 320 l 2
 384 195 392 123 573 123 c 0
 587 123 602 123 618 124 c 1
 604 -10 l 1
EndSplineSet
EndChar

StartChar: less
Encoding: 60 60 249
Width: 1161
VWidth: 0
GlyphClass: 2
Flags: W
LayerCount: 2
Fore
SplineSet
1067 48 m 1
 85 508 l 1
 85 595 l 1
 1071 1067 l 1
 1071 914 l 1
 304 552 l 1
 1067 200 l 1
 1067 48 l 1
EndSplineSet
EndChar

StartChar: lessequal
Encoding: 8804 8804 250
Width: 1340
VWidth: 0
GlyphClass: 2
Flags: W
LayerCount: 2
Fore
SplineSet
1135 247 m 1
 207 697 l 1
 207 778 l 1
 1135 1250 l 1
 1135 1110 l 1
 382 741 l 1
 1135 388 l 1
 1135 247 l 1
171 0 m 1
 171 122 l 1
 1164 122 l 1
 1164 0 l 1
 171 0 l 1
EndSplineSet
EndChar

StartChar: logicalnot
Encoding: 172 172 251
Width: 1417
VWidth: 0
GlyphClass: 2
Flags: W
LayerCount: 2
Fore
SplineSet
1068 238 m 1
 1068 659 l 1
 196 659 l 1
 196 798 l 1
 1218 798 l 1
 1218 238 l 1
 1068 238 l 1
EndSplineSet
EndChar

StartChar: lozenge
Encoding: 9674 9674 252
Width: 1197
VWidth: 0
GlyphClass: 2
Flags: W
LayerCount: 2
Fore
SplineSet
593 143 m 1
 946 716 l 1
 602 1310 l 1
 249 718 l 1
 593 143 l 1
542 0 m 1
 100 716 l 1
 550 1456 l 1
 652 1456 l 1
 1097 717 l 1
 644 0 l 1
 542 0 l 1
EndSplineSet
EndChar

StartChar: lslash
Encoding: 322 322 253
Width: 513
VWidth: 0
GlyphClass: 2
Flags: W
LayerCount: 2
Fore
SplineSet
178 0 m 1
 178 689 l 1
 10 589 l 1
 10 726 l 1
 178 826 l 1
 178 1492 l 1
 343 1492 l 1
 343 925 l 1
 514 1027 l 1
 514 890 l 1
 343 788 l 1
 343 0 l 1
 178 0 l 1
EndSplineSet
EndChar

StartChar: m
Encoding: 109 109 254
Width: 1856
VWidth: 0
GlyphClass: 2
Flags: W
AnchorPoint: "bottom" 949 0 basechar 0
AnchorPoint: "top" 958 1024 basechar 0
LayerCount: 2
Fore
SplineSet
1803 121 m 1
 1777 -14 l 1
 1761 -14 l 2
 1547 -14 1483 87 1483 313 c 2
 1483 607 l 2
 1483 853 1430 920 1291 920 c 0
 1148 920 1011 792 1011 542 c 2
 1011 0 l 1
 840 2 l 1
 840 607 l 2
 840 840 782 920 657 920 c 0
 528 920 351 796 351 515 c 2
 351 0 l 1
 181 0 l 1
 181 634 l 2
 181 833 138 1026 138 1026 c 1
 309 1026 l 1
 309 1026 327 976 339 878 c 1
 413 984 528 1052 684 1052 c 0
 806 1052 913 1003 968 870 c 1
 1045 988 1155 1052 1320 1052 c 0
 1501 1052 1653 946 1653 625 c 2
 1653 298 l 2
 1653 168 1675 121 1776 121 c 2
 1803 121 l 1
EndSplineSet
EndChar

StartChar: macron
Encoding: 175 175 255
Width: 972
VWidth: 0
GlyphClass: 2
Flags: W
AnchorPoint: "top" 484 1152 mark 0
LayerCount: 2
Fore
SplineSet
200 1322 m 1
 200 1456 l 1
 772 1456 l 1
 772 1322 l 1
 200 1322 l 1
EndSplineSet
EndChar

StartChar: minus
Encoding: 8722 8722 256
Width: 1445
VWidth: 0
GlyphClass: 2
Flags: W
LayerCount: 2
Fore
SplineSet
208 496 m 1
 208 633 l 1
 1235 633 l 1
 1235 496 l 1
 208 496 l 1
EndSplineSet
EndChar

StartChar: multiply
Encoding: 215 215 257
Width: 1340
VWidth: 0
GlyphClass: 2
Flags: W
LayerCount: 2
Fore
SplineSet
379 154 m 1
 276 257 l 1
 570 554 l 1
 276 851 l 1
 379 954 l 1
 670 657 l 1
 960 954 l 1
 1064 850 l 1
 769 554 l 1
 1064 258 l 1
 960 154 l 1
 670 450 l 1
 379 154 l 1
EndSplineSet
EndChar

StartChar: n
Encoding: 110 110 258
Width: 1249
VWidth: 0
GlyphClass: 2
Flags: W
AnchorPoint: "bottom" 682 0 basechar 0
AnchorPoint: "top" 706 1536 basechar 0
LayerCount: 2
Fore
SplineSet
1196 121 m 1
 1169 -14 l 1
 1152 -14 l 2
 930 -14 870 112 870 338 c 2
 870 621 l 2
 870 859 793 920 661 920 c 0
 500 920 351 815 351 552 c 2
 351 0 l 1
 181 0 l 1
 181 634 l 2
 181 833 138 1026 138 1026 c 1
 309 1026 l 1
 309 1026 327 977 339 878 c 1
 412 994 522 1052 680 1052 c 0
 866 1052 1040 946 1040 625 c 2
 1040 311 l 2
 1040 181 1063 121 1168 121 c 2
 1196 121 l 1
EndSplineSet
EndChar

StartChar: nine
Encoding: 57 57 262
Width: 1316
VWidth: 0
GlyphClass: 2
Flags: W
LayerCount: 2
Fore
SplineSet
998 1489 m 1
 998 0 l 1
 824 0 l 1
 824 874 l 1
 735 774 629 715 524 715 c 0
 330 715 177 867 177 1089 c 0
 177 1326 335 1586 647 1586 c 0
 800 1586 921 1547 998 1489 c 1
818 1412 m 1
 804 1421 749 1443 666 1443 c 0
 451 1443 351 1262 351 1097 c 0
 351 957 427 864 540 864 c 0
 667 864 818 993 818 1279 c 2
 818 1412 l 1
EndSplineSet
EndChar

StartChar: nine.alt
Encoding: 65541 -1 263
Width: 1176
VWidth: 0
GlyphClass: 2
Flags: W
LayerCount: 2
Fore
SplineSet
517 -24 m 0
 371 -24 280 21 193 104 c 1
 247 232 l 1
 318 155 409 118 520 118 c 0
 801 118 905 409 905 711 c 2
 905 735 l 1
 836 620 720 561 547 561 c 0
 264 561 98 754 98 1012 c 0
 98 1317 311 1480 581 1480 c 0
 950 1480 1080 1192 1080 786 c 0
 1080 335 885 -24 517 -24 c 0
572 701 m 0
 768 701 893 825 893 999 c 0
 893 1211 759 1340 573 1340 c 0
 378 1340 274 1193 274 1017 c 0
 274 820 381 701 572 701 c 0
EndSplineSet
EndChar

StartChar: nine.alt.2
Encoding: 65542 -1 264
Width: 1244
VWidth: 0
GlyphClass: 2
Flags: W
LayerCount: 2
Fore
SplineSet
545 -76 m 1
 415 0 l 1
 808 575 l 1
 800 569 728 515 622 515 c 0
 324 515 142 724 142 995 c 0
 142 1282 356 1481 635 1481 c 0
 979 1481 1138 1243 1138 991 c 0
 1138 865 1090 729 999 598 c 1
 545 -76 l 1
641 659 m 0
 860 659 971 791 971 992 c 0
 971 1202 872 1331 646 1331 c 0
 441 1331 314 1205 314 994 c 0
 314 821 397 659 641 659 c 0
EndSplineSet
EndChar

StartChar: notequal
Encoding: 8800 8800 265
Width: 1339
VWidth: 0
GlyphClass: 2
Flags: W
LayerCount: 2
Fore
SplineSet
465 46 m 1
 345 64 l 1
 471 325 l 1
 170 325 l 1
 170 445 l 1
 529 445 l 1
 670 728 l 1
 170 728 l 1
 170 849 l 1
 725 849 l 1
 856 1123 l 1
 978 1105 l 1
 854 849 l 1
 1160 849 l 1
 1162 728 l 1
 798 728 l 1
 656 445 l 1
 1162 445 l 1
 1162 325 l 1
 599 325 l 1
 465 46 l 1
EndSplineSet
EndChar

StartChar: numbersign
Encoding: 35 35 267
Width: 1388
VWidth: 0
GlyphClass: 2
Flags: W
LayerCount: 2
Fore
SplineSet
305 0 m 1
 389 465 l 1
 137 465 l 1
 145 583 l 1
 409 583 l 1
 460 899 l 1
 202 899 l 1
 215 1026 l 1
 481 1026 l 1
 557 1455 l 1
 687 1455 l 1
 613 1026 l 1
 884 1026 l 1
 957 1455 l 1
 1090 1455 l 1
 1012 1026 l 1
 1253 1026 l 1
 1239 899 l 1
 990 899 l 1
 938 583 l 1
 1187 583 l 1
 1176 465 l 1
 920 465 l 1
 840 0 l 1
 711 0 l 1
 788 465 l 1
 517 465 l 1
 438 0 l 1
 305 0 l 1
535 583 m 1
 809 583 l 1
 861 899 l 1
 590 899 l 1
 535 583 l 1
EndSplineSet
EndChar

StartChar: o
Encoding: 111 111 268
Width: 1204
VWidth: 0
GlyphClass: 2
Flags: W
AnchorPoint: "ogonek" 720 0 basechar 0
AnchorPoint: "bottom" 820 0 basechar 0
AnchorPoint: "top" 613 1152 basechar 0
LayerCount: 2
Fore
SplineSet
606 110 m 0
 800 110 924 275 924 513 c 0
 924 754 801 920 606 920 c 0
 408 920 280 755 280 513 c 0
 280 276 407 110 606 110 c 0
606 -22 m 0
 313 -22 106 193 106 513 c 0
 106 835 314 1052 606 1052 c 0
 894 1052 1098 834 1098 513 c 0
 1098 192 894 -22 606 -22 c 0
EndSplineSet
EndChar

StartChar: oe
Encoding: 339 339 273
Width: 1903
VWidth: 0
GlyphClass: 2
Flags: W
LayerCount: 2
Fore
SplineSet
1433 -22 m 0
 1262 -22 1108 63 1018 222 c 1
 932 67 788 -22 613 -22 c 0
 320 -22 112 191 112 511 c 0
 112 833 320 1052 612 1052 c 0
 789 1052 935 959 1021 801 c 1
 1104 954 1246 1052 1434 1052 c 0
 1641 1052 1778 922 1778 755 c 0
 1778 510 1440 445 1108 445 c 1
 1132 233 1260 114 1444 114 c 0
 1595 114 1686 179 1751 232 c 1
 1819 122 l 1
 1699 25 1589 -22 1433 -22 c 0
1106 566 m 1
 1339 566 1615 597 1615 758 c 0
 1615 852 1550 916 1435 916 c 0
 1269 916 1120 794 1106 566 c 1
613 114 m 0
 807 114 933 277 933 515 c 0
 933 756 807 916 612 916 c 0
 414 916 282 755 282 513 c 0
 282 276 414 114 613 114 c 0
EndSplineSet
EndChar

StartChar: ogonek
Encoding: 731 731 274
Width: 518
VWidth: 0
GlyphClass: 2
Flags: W
AnchorPoint: "ogonek" 308 0 mark 0
LayerCount: 2
Fore
SplineSet
276 -390 m 0
 151 -390 58 -335 58 -225 c 0
 58 -97 174 -35 273 12 c 1
 402 0 l 1
 316 -52 199 -117 199 -199 c 0
 199 -250 248 -281 299 -281 c 0
 363 -281 407 -268 453 -250 c 1
 453 -361 l 1
 407 -380 340 -390 276 -390 c 0
EndSplineSet
EndChar

StartChar: one
Encoding: 49 49 278
Width: 775
VWidth: 0
GlyphClass: 2
Flags: W
LayerCount: 2
Fore
SplineSet
474 0 m 1
 302 0 l 1
 302 1560 l 1
 474 1560 l 1
 474 0 l 1
EndSplineSet
EndChar

StartChar: one.alt
Encoding: 65543 -1 279
Width: 1258
VWidth: 0
GlyphClass: 2
Flags: W
LayerCount: 2
Fore
SplineSet
668 0 m 1
 668 1288 l 1
 602 1238 516 1190 410 1146 c 1
 369 1277 l 1
 485 1330 607 1405 675 1456 c 1
 840 1456 l 1
 840 0 l 1
 668 0 l 1
EndSplineSet
EndChar

StartChar: onehalf
Encoding: 189 189 280
Width: 1949
VWidth: 0
GlyphClass: 2
Flags: W
LayerCount: 2
Fore
SplineSet
339 0 m 1
 1172 1456 l 1
 1321 1456 l 1
 490 0 l 1
 339 0 l 1
209 426 m 1
 209 1351 l 1
 124 1351 l 1
 124 1456 l 1
 350 1456 l 1
 350 426 l 1
 209 426 l 1
1664 738 m 0
 1664 855 1612 926 1503 926 c 0
 1364 926 1275 832 1275 833 c 2
 1217 950 l 1
 1217 950 1316 1052 1507 1052 c 0
 1688 1052 1815 927 1815 738 c 0
 1815 593 1718 486 1596 344 c 2
 1404 119 l 1
 1795 119 l 1
 1795 0 l 1
 1236 0 l 1
 1236 126 l 1
 1514 451 l 2
 1616 571 1664 645 1664 738 c 0
EndSplineSet
Ligature2: "fracDiagonalFractionslookup0 subtable" one slash two
Ligature2: "fracDiagonalFractionslookup0 subtable" one fraction two
EndChar

StartChar: onequarter
Encoding: 188 188 281
Width: 1812
VWidth: 0
GlyphClass: 2
Flags: W
LayerCount: 2
Fore
SplineSet
286 0 m 1
 1119 1456 l 1
 1268 1456 l 1
 437 0 l 1
 286 0 l 1
169 426 m 1
 169 1351 l 1
 84 1351 l 1
 84 1456 l 1
 310 1456 l 1
 310 426 l 1
 169 426 l 1
1537 617 m 1
 1537 363 l 1
 1726 363 l 1
 1726 264 l 1
 1538 264 l 1
 1538 0 l 1
 1406 0 l 1
 1406 264 l 1
 967 264 l 1
 967 355 l 1
 1328 1026 l 1
 1465 1026 l 1
 1128 363 l 1
 1406 363 l 1
 1406 617 l 1
 1537 617 l 1
EndSplineSet
Ligature2: "fracDiagonalFractionslookup0 subtable" one slash four
Ligature2: "fracDiagonalFractionslookup0 subtable" one fraction four
EndChar

StartChar: ordmasculine
Encoding: 186 186 283
Width: 1094
VWidth: 0
GlyphClass: 2
Flags: W
LayerCount: 2
Fore
SplineSet
549 771 m 0
 329 771 191 905 191 1128 c 0
 191 1357 341 1480 548 1480 c 0
 775 1480 903 1326 903 1125 c 0
 903 896 757 771 549 771 c 0
549 879 m 0
 686 879 765 983 765 1123 c 0
 765 1268 686 1373 546 1373 c 0
 409 1373 331 1268 331 1127 c 0
 331 981 407 879 549 879 c 0
EndSplineSet
EndChar

StartChar: oslash
Encoding: 248 248 284
Width: 1216
VWidth: 0
GlyphClass: 2
Flags: W
LayerCount: 2
Fore
SplineSet
353 -261 m 1
 257 -229 l 1
 869 1277 l 1
 969 1245 l 1
 353 -261 l 1
EndSplineSet
Refer: 268 111 N 1 0 0 1 0 0 2
EndChar

StartChar: p
Encoding: 112 112 286
Width: 1194
VWidth: 0
GlyphClass: 2
Flags: W
AnchorPoint: "ogonek" 850 0 basechar 0
AnchorPoint: "bottom" 826 0 basechar 0
AnchorPoint: "top" 656 1536 basechar 0
LayerCount: 2
Fore
SplineSet
351 -574 m 1
 181 -574 l 1
 181 634 l 2
 181 833 138 1026 138 1026 c 1
 309 1026 l 1
 309 1026 326 963 338 870 c 1
 398 969 499 1052 674 1052 c 0
 925 1052 1088 853 1088 543 c 0
 1088 186 886 -22 596 -22 c 0
 503 -22 417 -1 351 22 c 1
 351 -574 l 1
351 161 m 1
 414 135 487 110 570 110 c 0
 763 110 914 239 914 541 c 0
 914 785 817 920 639 920 c 0
 436 920 351 721 351 500 c 2
 351 161 l 1
EndSplineSet
EndChar

StartChar: paragraph
Encoding: 182 182 287
Width: 1150
VWidth: 0
GlyphClass: 2
Flags: W
LayerCount: 2
Fore
SplineSet
468 0 m 1
 468 830 l 1
 253 830 137 946 137 1134 c 0
 137 1398 389 1455 642 1455 c 2
 1023 1455 l 1
 1023 1331 l 1
 936 1331 l 1
 936 0 l 1
 807 0 l 1
 807 1331 l 1
 606 1331 l 1
 606 0 l 1
 468 0 l 1
EndSplineSet
EndChar

StartChar: parenleft
Encoding: 40 40 288
Width: 640
VWidth: 0
GlyphClass: 2
Flags: W
LayerCount: 2
Fore
SplineSet
411 -205 m 1
 230 81 136 374 136 671 c 0
 136 966 228 1264 417 1560 c 1
 564 1560 l 1
 388 1283 303 978 303 676 c 0
 303 369 391 64 560 -205 c 1
 411 -205 l 1
EndSplineSet
EndChar

StartChar: parenright
Encoding: 41 41 289
Width: 640
VWidth: 0
GlyphClass: 2
Flags: W
LayerCount: 2
Fore
SplineSet
80 -205 m 1
 249 64 337 369 337 676 c 0
 337 978 252 1283 76 1560 c 1
 223 1560 l 1
 412 1264 504 966 504 671 c 0
 504 374 410 81 229 -205 c 1
 80 -205 l 1
EndSplineSet
EndChar

StartChar: partialdiff
Encoding: 8706 8706 290
Width: 1153
VWidth: 0
GlyphClass: 2
Flags: W
LayerCount: 2
Fore
SplineSet
492 -22 m 0
 224 -22 93 177 93 425 c 0
 93 776 322 1007 583 1007 c 0
 727 1007 819 932 889 841 c 1
 889 861 890 895 890 916 c 0
 890 1193 781 1346 562 1346 c 0
 453 1346 366 1298 299 1251 c 1
 289 1389 l 1
 361 1439 468 1480 585 1480 c 0
 941 1480 1061 1192 1061 857 c 0
 1061 373 875 -22 492 -22 c 0
495 113 m 0
 755 113 841 389 872 660 c 1
 829 779 741 874 605 874 c 0
 375 874 262 671 262 422 c 0
 262 240 350 113 495 113 c 0
EndSplineSet
EndChar

StartChar: percent
Encoding: 37 37 291
Width: 1788
VWidth: 0
GlyphClass: 2
Flags: W
LayerCount: 2
Fore
SplineSet
366 0 m 1
 1266 1560 l 1
 1415 1560 l 1
 520 0 l 1
 366 0 l 1
1353 -24 m 0
 1125 -24 1009 149 1009 354 c 0
 1009 593 1153 738 1358 738 c 0
 1577 738 1701 585 1701 359 c 0
 1701 121 1557 -24 1353 -24 c 0
435 937 m 0
 576 937 636 1062 636 1208 c 0
 636 1355 576 1473 436 1473 c 0
 294 1473 232 1348 232 1201 c 0
 232 1046 297 937 435 937 c 0
1356 89 m 0
 1497 89 1557 214 1557 360 c 0
 1557 507 1497 625 1357 625 c 0
 1215 625 1153 500 1153 353 c 0
 1153 198 1218 89 1356 89 c 0
432 824 m 0
 204 824 88 997 88 1202 c 0
 88 1441 232 1586 437 1586 c 0
 656 1586 780 1433 780 1207 c 0
 780 969 636 824 432 824 c 0
EndSplineSet
EndChar

StartChar: period
Encoding: 46 46 292
Width: 603
VWidth: 0
GlyphClass: 2
Flags: W
LayerCount: 2
Fore
SplineSet
302 -16 m 0
 233 -16 195 33 195 90 c 0
 195 156 249 195 303 195 c 0
 372 195 410 146 410 89 c 0
 410 23 356 -16 302 -16 c 0
EndSplineSet
EndChar

StartChar: periodcentered
Encoding: 183 183 293
Width: 617
VWidth: 0
GlyphClass: 2
Flags: W
LayerCount: 2
Fore
SplineSet
308 1134 m 0
 402 1134 450 1061 450 988 c 0
 450 915 402 842 308 842 c 0
 214 842 167 916 167 989 c 0
 167 1062 214 1134 308 1134 c 0
EndSplineSet
EndChar

StartChar: perthousand
Encoding: 8240 8240 294
Width: 2567
VWidth: 0
GlyphClass: 2
Flags: W
LayerCount: 2
Fore
SplineSet
2154 89 m 0
 2295 89 2355 214 2355 360 c 0
 2355 507 2295 625 2155 625 c 0
 2013 625 1951 500 1951 353 c 0
 1951 198 2016 89 2154 89 c 0
2151 -24 m 0
 1923 -24 1807 149 1807 354 c 0
 1807 593 1951 738 2156 738 c 0
 2375 738 2499 585 2499 359 c 0
 2499 121 2355 -24 2151 -24 c 0
EndSplineSet
Refer: 291 37 N 1 0 0 1 0 0 2
EndChar

StartChar: pi
Encoding: 960 960 295
Width: 1278
VWidth: 0
GlyphClass: 2
Flags: W
LayerCount: 2
Fore
SplineSet
1052 -22 m 0
 879 -22 842 90 842 265 c 2
 842 893 l 1
 527 893 l 1
 527 618 443 161 351 0 c 1
 170 0 l 1
 293 216 375 655 375 893 c 1
 281 893 174 854 107 782 c 1
 77 933 l 1
 156 993 278 1026 420 1026 c 2
 1205 1026 l 1
 1205 893 l 1
 1001 893 l 1
 1001 242 l 2
 1001 160 1015 101 1099 101 c 0
 1124 101 1150 105 1179 114 c 1
 1189 -8 l 1
 1144 -16 1099 -22 1052 -22 c 0
EndSplineSet
EndChar

StartChar: plus
Encoding: 43 43 296
Width: 1383
VWidth: 0
GlyphClass: 2
Flags: W
LayerCount: 2
Fore
SplineSet
616 202 m 1
 616 675 l 1
 195 675 l 1
 195 814 l 1
 619 814 l 1
 619 1282 l 1
 767 1282 l 1
 767 814 l 1
 1188 814 l 1
 1188 675 l 1
 765 675 l 1
 765 202 l 1
 616 202 l 1
EndSplineSet
EndChar

StartChar: plusminus
Encoding: 177 177 297
Width: 1425
VWidth: 0
GlyphClass: 2
Flags: W
LayerCount: 2
Fore
SplineSet
635 308 m 1
 635 680 l 1
 196 680 l 1
 196 818 l 1
 633 818 l 1
 633 1192 l 1
 782 1192 l 1
 782 818 l 1
 1224 818 l 1
 1224 680 l 1
 785 680 l 1
 785 308 l 1
 635 308 l 1
196 0 m 1
 196 138 l 1
 1228 138 l 1
 1228 0 l 1
 196 0 l 1
EndSplineSet
EndChar

StartChar: product
Encoding: 8719 8719 298
Width: 1549
VWidth: 0
GlyphClass: 2
Flags: W
LayerCount: 2
Fore
SplineSet
301 0 m 1
 301 1311 l 1
 100 1311 l 1
 100 1456 l 1
 1449 1456 l 1
 1449 1311 l 1
 1270 1311 l 1
 1270 0 l 1
 1092 0 l 1
 1092 1311 l 1
 476 1311 l 1
 476 0 l 1
 301 0 l 1
EndSplineSet
EndChar

StartChar: q
Encoding: 113 113 299
Width: 1183
VWidth: 0
GlyphClass: 2
Flags: W
LayerCount: 2
Fore
SplineSet
999 -544 m 2
 983 -551 965 -555 946 -555 c 0
 896 -555 839 -526 839 -441 c 2
 839 153 l 1
 763 28 650 -22 514 -22 c 0
 274 -22 106 162 106 438 c 0
 106 820 328 1052 660 1052 c 0
 789 1052 929 1006 1009 954 c 1
 1009 -394 l 1
 1270 -285 l 1
 1316 -405 l 1
 999 -544 l 2
535 110 m 0
 739 110 839 273 839 476 c 2
 839 881 l 1
 799 893 730 920 657 920 c 0
 425 920 280 734 280 448 c 0
 280 248 379 110 535 110 c 0
EndSplineSet
EndChar

StartChar: question
Encoding: 63 63 300
Width: 990
VWidth: 0
GlyphClass: 2
Flags: W
LayerCount: 2
Fore
SplineSet
680 1228 m 0
 680 1379 562 1436 424 1436 c 0
 324 1436 210 1404 140 1365 c 1
 140 1516 l 1
 220 1555 323 1586 429 1586 c 0
 706 1586 849 1441 849 1236 c 0
 849 863 438 711 438 401 c 1
 313 401 l 1
 313 763 680 892 680 1228 c 0
382 0 m 0
 313 0 275 49 275 106 c 0
 275 172 329 211 383 211 c 0
 451 211 488 162 488 105 c 0
 488 39 436 0 382 0 c 0
EndSplineSet
EndChar

StartChar: quotedbl
Encoding: 34 34 302
Width: 847
VWidth: 0
GlyphClass: 2
Flags: W
LayerCount: 2
Fore
SplineSet
191 931 m 1
 190 1456 l 1
 356 1456 l 1
 300 931 l 1
 191 931 l 1
490 931 m 1
 489 1456 l 1
 656 1456 l 1
 598 931 l 1
 490 931 l 1
EndSplineSet
EndChar

StartChar: quotedblbase
Encoding: 8222 8222 303
Width: 933
VWidth: 0
GlyphClass: 2
Flags: W
LayerCount: 2
Fore
SplineSet
144 -238 m 1
 249 201 l 1
 431 201 l 1
 278 -238 l 1
 144 -238 l 1
503 -238 m 1
 607 201 l 1
 790 201 l 1
 636 -238 l 1
 503 -238 l 1
EndSplineSet
EndChar

StartChar: quotedblleft
Encoding: 8220 8220 304
Width: 923
VWidth: 0
GlyphClass: 2
Flags: W
LayerCount: 2
Fore
SplineSet
144 1016 m 1
 298 1560 l 1
 431 1560 l 1
 326 1016 l 1
 144 1016 l 1
493 1016 m 1
 647 1560 l 1
 780 1560 l 1
 676 1016 l 1
 493 1016 l 1
EndSplineSet
EndChar

StartChar: quotedblright
Encoding: 8221 8221 305
Width: 899
VWidth: 0
GlyphClass: 2
Flags: W
LayerCount: 2
Fore
SplineSet
146 1016 m 1
 250 1560 l 1
 432 1560 l 1
 279 1016 l 1
 146 1016 l 1
472 1016 m 1
 577 1560 l 1
 759 1560 l 1
 605 1016 l 1
 472 1016 l 1
EndSplineSet
EndChar

StartChar: quoteleft
Encoding: 8216 8216 306
Width: 573
VWidth: 0
GlyphClass: 2
Flags: W
LayerCount: 2
Fore
SplineSet
430 1456 m 1
 326 1016 l 1
 144 1016 l 1
 298 1456 l 1
 430 1456 l 1
EndSplineSet
EndChar

StartChar: quoteright
Encoding: 8217 8217 307
Width: 571
VWidth: 0
GlyphClass: 2
Flags: W
LayerCount: 2
Fore
SplineSet
145 1016 m 1
 250 1456 l 1
 431 1456 l 1
 277 1016 l 1
 145 1016 l 1
EndSplineSet
EndChar

StartChar: quotesinglbase
Encoding: 8218 8218 308
Width: 572
VWidth: 0
GlyphClass: 2
Flags: W
LayerCount: 2
Fore
SplineSet
143 -238 m 1
 249 201 l 1
 430 201 l 1
 276 -238 l 1
 143 -238 l 1
EndSplineSet
EndChar

StartChar: quotesingle
Encoding: 39 39 309
Width: 548
VWidth: 0
GlyphClass: 2
Flags: W
LayerCount: 2
Fore
SplineSet
192 994 m 1
 190 1456 l 1
 356 1456 l 1
 306 994 l 1
 192 994 l 1
EndSplineSet
EndChar

StartChar: r
Encoding: 114 114 310
Width: 778
VWidth: 0
GlyphClass: 2
Flags: W
AnchorPoint: "bottom" 352 -3 basechar 0
AnchorPoint: "top" 495 1152 basechar 0
LayerCount: 2
Fore
SplineSet
353 0 m 1
 183 0 l 1
 183 634 l 2
 183 833 140 1026 140 1026 c 1
 311 1026 l 1
 311 1026 327 981 339 890 c 1
 385 975 472 1047 612 1047 c 0
 652 1047 697 1041 746 1028 c 1
 732 883 l 1
 688 898 649 904 614 904 c 0
 412 904 353 680 353 457 c 2
 353 0 l 1
EndSplineSet
EndChar

StartChar: radical
Encoding: 8730 8730 312
Width: 1238
VWidth: 0
GlyphClass: 2
Flags: W
LayerCount: 2
Fore
SplineSet
551 0 m 1
 300 673 l 1
 128 645 l 1
 108 757 l 1
 401 808 l 1
 551 367 l 1
 613 162 l 1
 667 370 l 1
 1008 1456 l 1
 1138 1456 l 1
 680 0 l 1
 551 0 l 1
EndSplineSet
EndChar

StartChar: registered
Encoding: 174 174 315
Width: 1880
VWidth: 0
GlyphClass: 2
Flags: W
LayerCount: 2
Fore
SplineSet
940 1480 m 0
 1354 1480 1692 1141 1692 727 c 0
 1692 314 1354 -25 940 -25 c 0
 526 -25 188 314 188 727 c 0
 188 1141 526 1480 940 1480 c 0
939 80 m 0
 1290 80 1568 374 1568 725 c 0
 1568 1077 1290 1371 939 1371 c 0
 587 1371 309 1077 309 725 c 0
 309 374 587 80 939 80 c 0
787 803 m 1
 881 803 l 2
 1006 803 1126 807 1126 935 c 0
 1126 1062 1040 1072 925 1072 c 2
 858 1072 l 1
 787 1072 l 1
 787 803 l 1
789 293 m 1
 647 293 l 1
 647 1192 l 1
 861 1192 l 2
 1141 1192 1275 1116 1275 950 c 0
 1275 802 1178 731 1052 706 c 1
 1293 293 l 1
 1132 293 l 1
 917 684 l 1
 789 684 l 1
 789 293 l 1
EndSplineSet
EndChar

StartChar: ring
Encoding: 730 730 316
Width: 616
VWidth: 0
GlyphClass: 2
Flags: W
AnchorPoint: "top" 316 1152 mark 0
LayerCount: 2
Fore
SplineSet
308 1480 m 0
 413 1480 498 1404 498 1300 c 0
 498 1195 413 1120 308 1120 c 0
 204 1120 118 1195 118 1300 c 0
 118 1404 204 1480 308 1480 c 0
308 1195 m 0
 365 1195 409 1243 409 1301 c 0
 409 1358 365 1406 308 1406 c 0
 250 1406 207 1358 207 1301 c 0
 207 1243 250 1195 308 1195 c 0
EndSplineSet
EndChar

StartChar: s
Encoding: 115 115 317
Width: 890
VWidth: 0
GlyphClass: 2
Flags: W
AnchorPoint: "bottom" 510 0 basechar 0
AnchorPoint: "top" 509 1152 basechar 0
LayerCount: 2
Fore
SplineSet
804 290 m 0
 804 91 661 -22 462 -22 c 0
 292 -22 166 38 105 75 c 1
 157 206 l 1
 233 156 353 110 453 110 c 0
 552 110 641 155 641 272 c 0
 641 365 597 392 438 465 c 0
 294 532 113 575 113 771 c 0
 113 961 268 1052 460 1052 c 0
 596 1052 701 1013 771 976 c 1
 733 838 l 1
 649 887 551 920 469 920 c 0
 366 920 283 872 283 784 c 0
 283 695 365 670 514 601 c 0
 678 525 804 468 804 290 c 0
EndSplineSet
EndChar

StartChar: section
Encoding: 167 167 323
Width: 1071
VWidth: 0
GlyphClass: 2
Flags: W
LayerCount: 2
Fore
SplineSet
473 -24 m 0
 375 -24 284 -4 208 27 c 1
 206 172 l 1
 289 136 368 110 468 110 c 0
 595 110 697 172 697 260 c 0
 697 371 600 385 495 431 c 2
 415 466 l 2
 296 518 181 599 181 734 c 0
 181 861 282 931 370 974 c 1
 285 1025 217 1087 217 1211 c 0
 217 1405 397 1480 589 1480 c 0
 678 1480 738 1462 813 1440 c 1
 815 1296 l 1
 755 1323 675 1346 594 1346 c 0
 489 1346 388 1319 388 1215 c 0
 388 1135 440 1100 496 1069 c 0
 648 985 892 931 892 742 c 0
 892 614 789 541 706 491 c 1
 791 449 869 392 869 269 c 0
 869 57 685 -24 473 -24 c 0
578 557 m 1
 640 596 714 649 714 728 c 0
 714 849 563 887 486 920 c 1
 428 889 358 834 358 746 c 0
 358 622 471 599 578 557 c 1
EndSplineSet
EndChar

StartChar: semicolon
Encoding: 59 59 324
Width: 617
VWidth: 0
GlyphClass: 2
Flags: W
LayerCount: 2
Fore
SplineSet
335 1078 m 0
 423 1078 467 1017 467 955 c 0
 467 893 423 832 335 832 c 0
 247 832 203 893 203 955 c 0
 203 1017 247 1078 335 1078 c 0
146 -256 m 1
 252 207 l 1
 440 207 l 1
 277 -256 l 1
 146 -256 l 1
EndSplineSet
EndChar

StartChar: seven
Encoding: 55 55 325
Width: 1316
VWidth: 0
GlyphClass: 2
Flags: W
LayerCount: 2
Fore
SplineSet
407 0 m 1
 931 1415 l 1
 209 1415 l 1
 209 1560 l 1
 1131 1560 l 1
 1131 1469 l 1
 593 0 l 1
 407 0 l 1
EndSplineSet
EndChar

StartChar: six
Encoding: 54 54 326
Width: 1316
VWidth: 0
GlyphClass: 2
Flags: W
LayerCount: 2
Fore
SplineSet
686 -24 m 0
 313 -24 185 249 185 585 c 0
 185 960 353 1451 915 1587 c 1
 951 1452 l 1
 574 1352 408 1082 368 781 c 1
 433 903 604 946 710 946 c 0
 974 946 1151 754 1151 464 c 0
 1151 175 955 -24 686 -24 c 0
681 126 m 0
 858 126 984 254 984 459 c 0
 984 652 895 802 690 802 c 0
 505 802 355 683 355 492 c 0
 355 263 465 126 681 126 c 0
EndSplineSet
EndChar

StartChar: slash
Encoding: 47 47 327
Width: 952
VWidth: 0
GlyphClass: 2
Flags: W
LayerCount: 2
Fore
SplineSet
80 0 m 1
 705 1560 l 1
 872 1560 l 1
 243 0 l 1
 80 0 l 1
EndSplineSet
EndChar

StartChar: sterling
Encoding: 163 163 329
Width: 1273
VWidth: 0
GlyphClass: 2
Flags: W
LayerCount: 2
Fore
SplineSet
194 0 m 1
 194 138 l 1
 298 199 351 332 351 500 c 2
 351 711 l 1
 168 711 l 1
 168 843 l 1
 350 843 l 1
 350 1029 l 2
 350 1379 473 1586 769 1586 c 0
 908 1586 1017 1556 1094 1495 c 1
 1042 1364 l 1
 972 1407 886 1436 779 1436 c 0
 579 1436 522 1294 522 1085 c 2
 522 843 l 1
 863 843 l 1
 863 711 l 1
 524 711 l 1
 524 551 l 2
 524 352 481 217 387 141 c 1
 1137 141 l 1
 1137 0 l 1
 194 0 l 1
EndSplineSet
EndChar

StartChar: summation
Encoding: 8721 8721 330
Width: 1175
VWidth: 0
GlyphClass: 2
Flags: W
LayerCount: 2
Fore
SplineSet
156 0 m 1
 156 123 l 1
 564 739 l 1
 178 1338 l 1
 178 1456 l 1
 1010 1456 l 1
 1010 1314 l 1
 386 1314 l 1
 760 741 l 1
 356 148 l 1
 1055 148 l 1
 1055 0 l 1
 156 0 l 1
EndSplineSet
EndChar

StartChar: t
Encoding: 116 116 331
Width: 810
VWidth: 0
GlyphClass: 2
Flags: W
AnchorPoint: "bottom" 544 6 basechar 0
AnchorPoint: "top" 543 1152 basechar 0
LayerCount: 2
Fore
SplineSet
52 920 m 1
 52 1026 l 1
 255 1026 l 1
 255 1353 l 1
 425 1353 l 1
 425 1026 l 1
 708 1026 l 1
 708 920 l 1
 425 920 l 1
 425 320 l 2
 425 195 442 123 648 123 c 0
 664 123 681 123 699 124 c 1
 685 -10 l 1
 655 -12 626 -13 600 -13 c 0
 292 -13 255 144 255 326 c 2
 255 920 l 1
 52 920 l 1
EndSplineSet
EndChar

StartChar: thorn
Encoding: 254 254 334
Width: 1223
VWidth: 0
GlyphClass: 2
Flags: W
LayerCount: 2
Fore
SplineSet
168 -508 m 1
 168 1456 l 1
 335 1456 l 1
 335 882 l 1
 406 982 509 1052 664 1052 c 0
 978 1052 1123 807 1123 527 c 0
 1123 197 952 -22 664 -22 c 0
 526 -22 416 30 333 135 c 1
 333 -508 l 1
 168 -508 l 1
641 109 m 0
 858 109 947 296 947 521 c 0
 947 745 863 916 647 916 c 0
 418 916 333 732 333 494 c 0
 333 263 443 109 641 109 c 0
EndSplineSet
EndChar

StartChar: three
Encoding: 51 51 335
Width: 1316
VWidth: 0
GlyphClass: 2
Flags: W
LayerCount: 2
Fore
SplineSet
658 -24 m 0
 515 -24 350 16 235 85 c 1
 288 225 l 1
 413 159 538 125 646 125 c 0
 844 125 950 245 950 430 c 2
 950 446 l 1
 944 639 805 736 566 736 c 2
 488 736 l 1
 488 884 l 1
 552 884 l 2
 778 884 901 990 901 1179 c 0
 901 1345 786 1435 630 1435 c 0
 487 1435 380 1391 281 1291 c 1
 185 1400 l 1
 288 1523 464 1586 626 1586 c 0
 858 1586 1066 1446 1066 1185 c 0
 1066 1022 980 867 818 819 c 1
 1008 780 1120 623 1120 434 c 0
 1120 128 907 -24 658 -24 c 0
EndSplineSet
EndChar

StartChar: threequarters
Encoding: 190 190 336
Width: 2060
VWidth: 0
GlyphClass: 2
Flags: W
LayerCount: 2
Fore
SplineSet
543 0 m 1
 1376 1456 l 1
 1525 1456 l 1
 694 0 l 1
 543 0 l 1
1785 617 m 1
 1785 363 l 1
 1974 363 l 1
 1974 264 l 1
 1786 264 l 1
 1786 0 l 1
 1654 0 l 1
 1654 264 l 1
 1215 264 l 1
 1215 355 l 1
 1576 1026 l 1
 1713 1026 l 1
 1376 363 l 1
 1654 363 l 1
 1654 617 l 1
 1785 617 l 1
361 1482 m 0
 500 1482 648 1394 648 1212 c 0
 648 1096 593 1003 493 972 c 1
 607 945 670 847 670 711 c 0
 670 516 510 411 347 411 c 0
 213 411 118 478 110 483 c 1
 148 596 l 1
 174 579 247 529 340 529 c 0
 451 529 540 599 540 718 c 0
 540 856 463 914 322 914 c 2
 263 914 l 1
 263 1028 l 1
 311 1028 l 2
 444 1028 519 1090 519 1199 c 0
 519 1299 442 1364 348 1364 c 0
 249 1364 176 1320 136 1277 c 1
 82 1370 l 1
 140 1440 243 1482 361 1482 c 0
EndSplineSet
Ligature2: "fracDiagonalFractionslookup0 subtable" three slash four
Ligature2: "fracDiagonalFractionslookup0 subtable" three fraction four
EndChar

StartChar: tilde
Encoding: 732 732 337
Width: 673
VWidth: 0
GlyphClass: 2
Flags: W
AnchorPoint: "top" 339 1152 mark 0
LayerCount: 2
Fore
SplineSet
443 1264 m 0
 342 1264 296 1355 220 1355 c 0
 175 1355 166 1316 159 1263 c 1
 54 1263 l 1
 64 1379 129 1479 253 1479 c 0
 360 1479 418 1389 470 1389 c 0
 516 1389 523 1436 530 1485 c 1
 638 1485 l 1
 625 1372 567 1264 443 1264 c 0
EndSplineSet
EndChar

StartChar: trademark
Encoding: 8482 8482 338
Width: 1839
VWidth: 0
GlyphClass: 2
Flags: W
LayerCount: 2
Fore
SplineSet
814 690 m 1
 814 1455 l 1
 961 1455 l 1
 1229 846 l 1
 1508 1455 l 1
 1646 1455 l 1
 1646 690 l 1
 1530 690 l 1
 1530 1274 l 1
 1280 719 l 1
 1178 719 l 1
 929 1273 l 1
 929 690 l 1
 814 690 l 1
333 690 m 1
 333 1354 l 1
 80 1354 l 1
 80 1455 l 1
 707 1455 l 1
 707 1354 l 1
 457 1354 l 1
 457 690 l 1
 333 690 l 1
EndSplineSet
EndChar

StartChar: two
Encoding: 50 50 339
Width: 1316
VWidth: 0
GlyphClass: 2
Flags: W
LayerCount: 2
Fore
SplineSet
889 1157 m 0
 889 1324 788 1436 621 1436 c 0
 424 1436 290 1240 289 1241 c 2
 191 1369 l 1
 191 1369 360 1586 618 1586 c 0
 885 1586 1059 1422 1059 1152 c 0
 1059 948 977 815 811 605 c 2
 448 144 l 1
 1060 144 l 1
 1060 0 l 1
 237 0 l 1
 237 135 l 1
 701 725 l 2
 840 902 889 1022 889 1157 c 0
EndSplineSet
EndChar

StartChar: u
Encoding: 117 117 340
Width: 1216
VWidth: 0
GlyphClass: 2
Flags: W
AnchorPoint: "ogonek" 980 0 basechar 0
AnchorPoint: "bottom" 620 0 basechar 0
AnchorPoint: "top" 633 1152 basechar 0
LayerCount: 2
Fore
SplineSet
533 -22 m 0
 352 -22 176 78 176 347 c 2
 176 365 l 1
 182 582 l 2
 182 599 183 617 183 634 c 0
 183 832 154 1026 154 1026 c 1
 325 1026 l 1
 325 1026 354 906 354 667 c 0
 354 640 354 613 353 583 c 2
 347 365 l 1
 347 352 l 2
 347 165 445 110 558 110 c 0
 723 110 853 259 853 482 c 2
 853 1026 l 1
 1023 1026 l 1
 1023 328 l 2
 1023 182 1042 121 1168 121 c 1
 1139 -14 l 1
 1002 -14 908 32 878 167 c 1
 802 41 698 -22 533 -22 c 0
EndSplineSet
EndChar

StartChar: underscore
Encoding: 95 95 348
Width: 1383
VWidth: 0
GlyphClass: 2
Flags: W
LayerCount: 2
Fore
SplineSet
200 -152 m 1
 200 -24 l 1
 1183 -24 l 1
 1183 -152 l 1
 200 -152 l 1
EndSplineSet
EndChar

StartChar: uni00B2
Encoding: 178 178 351
Width: 927
VWidth: 0
GlyphClass: 2
Flags: W
LayerCount: 2
Fore
SplineSet
188 604 m 1
 188 715 l 1
 294 812 400 908 489 1006 c 0
 526 1047 554 1084 575 1118 c 0
 596 1152 606 1183 606 1211 c 0
 606 1286 545 1323 466 1323 c 0
 371 1323 314 1262 281 1192 c 1
 196 1270 l 1
 239 1370 334 1440 472 1440 c 0
 590 1440 676 1388 715 1307 c 0
 728 1279 735 1248 735 1213 c 0
 735 1108 683 1033 629 968 c 0
 555 879 462 802 370 722 c 1
 734 722 l 1
 734 604 l 1
 188 604 l 1
EndSplineSet
EndChar

StartChar: uni00B3
Encoding: 179 179 352
Width: 862
VWidth: 0
GlyphClass: 2
Flags: W
LayerCount: 2
Fore
SplineSet
403 586 m 0
 296 586 214 626 157 683 c 1
 217 779 l 1
 273 727 333 701 398 701 c 0
 492 701 573 745 573 837 c 0
 573 948 471 971 358 971 c 0
 351 971 337 970 328 970 c 2
 302 970 l 1
 302 1089 l 1
 351 1089 l 2
 452 1089 548 1110 548 1210 c 0
 548 1291 488 1322 407 1322 c 0
 325 1322 264 1284 215 1244 c 1
 157 1340 l 1
 212 1394 305 1441 409 1441 c 0
 528 1441 616 1388 658 1310 c 0
 673 1282 681 1250 681 1213 c 0
 681 1124 636 1065 574 1032 c 1
 648 999 702 937 702 834 c 0
 702 708 616 634 518 603 c 0
 482 592 443 586 403 586 c 0
EndSplineSet
EndChar

StartChar: uni00B9
Encoding: 185 185 353
Width: 721
VWidth: 0
GlyphClass: 2
Flags: W
LayerCount: 2
Fore
SplineSet
195 604 m 1
 195 723 l 1
 317 723 l 1
 317 1008 l 2
 317 1067 316 1116 316 1168 c 2
 316 1271 l 1
 272 1248 214 1222 164 1203 c 1
 165 1333 l 1
 232 1354 281 1381 333 1412 c 1
 438 1427 l 1
 438 720 l 1
 560 720 l 1
 560 604 l 1
 195 604 l 1
EndSplineSet
EndChar

StartChar: uni0311
Encoding: 785 785 380
Width: 639
VWidth: 0
GlyphClass: 2
Flags: W
AnchorPoint: "top" 318 1152 mark 0
LayerCount: 2
Fore
SplineSet
42 1218 m 1
 55 1378 155 1454 326 1454 c 0
 492 1454 593 1372 606 1218 c 1
 520 1218 l 1
 500 1302 421 1347 319 1347 c 0
 217 1347 144 1306 129 1218 c 1
 42 1218 l 1
EndSplineSet
EndChar

StartChar: uni0326
Encoding: 806 806 381
Width: 10
VWidth: 0
GlyphClass: 2
Flags: W
LayerCount: 2
Fore
SplineSet
-183 -463 m 1
 -76 0 l 1
 111 0 l 1
 -52 -463 l 1
 -183 -463 l 1
EndSplineSet
EndChar

StartChar: uni03A9
Encoding: 937 937 382
Width: 1572
VWidth: 0
GlyphClass: 2
Flags: W
LayerCount: 2
Fore
SplineSet
114 0 m 1
 103 138 l 1
 439 137 l 1
 262 273 124 524 124 807 c 0
 124 1236 383 1480 798 1480 c 0
 1212 1480 1451 1221 1451 803 c 0
 1451 497 1297 273 1131 137 c 1
 1453 138 l 1
 1444 0 l 1
 937 0 l 1
 933 121 l 1
 1123 253 1273 509 1273 785 c 0
 1273 1126 1094 1330 794 1330 c 0
 468 1330 303 1093 303 790 c 0
 303 477 454 246 638 121 c 1
 641 0 l 1
 114 0 l 1
EndSplineSet
EndChar

StartChar: uni03BC
Encoding: 956 956 383
Width: 1239
VWidth: 0
GlyphClass: 2
Flags: W
LayerCount: 2
Fore
SplineSet
541 -22 m 0
 471 -22 401 -8 342 26 c 1
 342 -202 l 1
 187 -202 l 1
 185 582 l 1
 186 602 186 621 186 639 c 0
 186 913 126 1000 126 1000 c 1
 291 1026 l 1
 291 1026 351 951 351 656 c 0
 351 636 351 616 350 595 c 2
 344 365 l 1
 344 352 l 2
 344 165 448 114 561 114 c 0
 726 114 862 259 862 482 c 2
 862 1026 l 1
 1026 1026 l 1
 1026 328 l 2
 1026 182 1045 121 1171 121 c 1
 1142 -14 l 1
 1005 -14 911 32 881 161 c 1
 806 37 693 -22 541 -22 c 0
EndSplineSet
EndChar

StartChar: uni2074
Encoding: 8308 8308 398
Width: 907
VWidth: 0
GlyphClass: 2
Flags: W
LayerCount: 2
Fore
SplineSet
366 615 m 1
 366 803 l 1
 -12 803 l 1
 -12 894 l 1
 354 1412 l 1
 488 1412 l 1
 488 910 l 1
 597 910 l 1
 607 803 l 1
 486 803 l 1
 486 615 l 1
 366 615 l 1
127 910 m 1
 366 910 l 1
 366 1244 l 1
 127 910 l 1
EndSplineSet
EndChar

StartChar: uniF6C3
Encoding: 63171 63171 399
Width: 609
VWidth: 0
GlyphClass: 2
Flags: W
LayerCount: 2
Fore
SplineSet
120 -463 m 1
 227 0 l 1
 414 0 l 1
 251 -463 l 1
 120 -463 l 1
EndSplineSet
EndChar

StartChar: v
Encoding: 118 118 403
Width: 1060
VWidth: 0
GlyphClass: 2
Flags: W
LayerCount: 2
Fore
SplineSet
448 0 m 1
 46 1026 l 1
 228 1026 l 1
 481 353 l 1
 538 167 l 1
 626 465 738 739 837 1026 c 1
 1014 1026 l 1
 616 0 l 1
 448 0 l 1
EndSplineSet
EndChar

StartChar: w
Encoding: 119 119 404
Width: 1643
VWidth: 0
GlyphClass: 2
Flags: W
AnchorPoint: "bottom" 840 0 basechar 0
AnchorPoint: "top" 847 1024 basechar 0
LayerCount: 2
Fore
SplineSet
380 0 m 1
 33 1026 l 1
 209 1026 l 1
 440 284 l 2
 449 255 459 217 469 186 c 1
 479 214 488 249 500 276 c 1
 760 1026 l 1
 919 1026 l 1
 1156 286 l 2
 1165 258 1175 219 1185 189 c 1
 1198 219 1207 255 1219 287 c 1
 1441 1026 l 1
 1610 1026 l 1
 1260 0 l 1
 1100 0 l 1
 834 831 l 1
 542 0 l 1
 380 0 l 1
EndSplineSet
EndChar

StartChar: x
Encoding: 120 120 409
Width: 995
VWidth: 0
GlyphClass: 2
Flags: W
LayerCount: 2
Fore
SplineSet
14 0 m 1
 406 514 l 1
 33 1026 l 1
 235 1026 l 1
 512 638 l 1
 789 1026 l 1
 968 1026 l 1
 598 518 l 1
 981 0 l 1
 780 0 l 1
 501 396 l 1
 204 0 l 1
 14 0 l 1
EndSplineSet
EndChar

StartChar: y
Encoding: 121 121 410
Width: 1197
VWidth: 0
GlyphClass: 2
Flags: W
AnchorPoint: "top" 598 1024 basechar 0
LayerCount: 2
Fore
SplineSet
871 114 m 1
 800 33 706 -22 564 -22 c 0
 382 -22 176 76 176 349 c 2
 176 365 l 1
 182 582 l 2
 183 617 183 649 183 679 c 0
 183 927 154 1026 154 1026 c 1
 325 1026 l 1
 325 1026 354 959 354 699 c 0
 354 667 354 633 353 595 c 2
 347 365 l 1
 347 354 l 2
 347 165 474 110 588 110 c 0
 746 110 871 230 871 427 c 2
 871 1026 l 1
 1041 1026 l 1
 1041 9 l 2
 1041 -309 880 -566 532 -566 c 0
 444 -566 344 -549 231 -513 c 1
 249 -370 l 1
 354 -407 445 -424 524 -424 c 0
 756 -424 871 -272 871 -12 c 2
 871 114 l 1
EndSplineSet
EndChar

StartChar: yen
Encoding: 165 165 414
Width: 1530
VWidth: 0
GlyphClass: 2
Flags: W
LayerCount: 2
Fore
SplineSet
315 283 m 1
 315 403 l 1
 694 403 l 1
 694 574 l 1
 309 574 l 1
 309 696 l 1
 1213 696 l 1
 1213 574 l 1
 835 574 l 1
 835 403 l 1
 1216 403 l 1
 1216 283 l 1
 315 283 l 1
EndSplineSet
Refer: 113 89 N 1 0 0 1 148 0 2
EndChar

StartChar: z
Encoding: 122 122 416
Width: 982
VWidth: 0
GlyphClass: 2
Flags: W
AnchorPoint: "bottom" 541 0 basechar 0
AnchorPoint: "top" 492 1024 basechar 0
LayerCount: 2
Fore
SplineSet
107 0 m 1
 107 89 l 1
 652 891 l 1
 133 891 l 1
 133 1026 l 1
 875 1026 l 1
 875 939 l 1
 332 134 l 1
 892 134 l 1
 892 0 l 1
 107 0 l 1
EndSplineSet
EndChar

StartChar: zero
Encoding: 48 48 420
Width: 1316
VWidth: 0
GlyphClass: 2
Flags: W
LayerCount: 2
Fore
SplineSet
656 126 m 0
 907 126 970 516 970 786 c 0
 970 1072 928 1436 656 1436 c 0
 401 1436 346 1060 346 786 c 0
 346 499 383 126 656 126 c 0
656 -24 m 0
 281 -24 162 355 162 786 c 0
 162 1199 284 1586 656 1586 c 0
 1048 1586 1154 1213 1154 786 c 0
 1154 361 1022 -24 656 -24 c 0
EndSplineSet
EndChar
